<?xml version="1.0" encoding="UTF-8"?>
<!DOCTYPE svg PUBLIC "-//W3C//DTD SVG 1.1//EN" "http://www.w3.org/Graphics/SVG/1.1/DTD/svg11.dtd">
<!-- Creator: CorelDRAW 2019 (64-Bit) -->
<svg xmlns="http://www.w3.org/2000/svg" xml:space="preserve" width="210mm" height="297mm" version="1.1" style="shape-rendering:geometricPrecision; text-rendering:geometricPrecision; image-rendering:optimizeQuality; fill-rule:evenodd; clip-rule:evenodd"
viewBox="0 0 21000 29700"
 xmlns:xlink="http://www.w3.org/1999/xlink">
 <defs>
  <style type="text/css">
   <![CDATA[
    .fil2 {fill:#2980C2}
    .fil1 {fill:#2BE64E}
    .fil3 {fill:#CC2527}
    .fil0 {fill:#FE9900}
   ]]>
  </style>
 </defs>
 <g id="Слой_x0020_1">
  <metadata id="CorelCorpID_0Corel-Layer"/>
  <path class="fil0" d="M12773.16 14227.65c-288.34,-373.49 -701.03,-286.86 -1244.34,-279.02l-3829.35 61.89c-507.46,21.97 -526.07,-24.35 -685.58,-79.25 -73.64,182.32 -1.9,109.07 -159.61,333.97 -81.91,116.82 -89.8,255.96 -180.22,329.93 -71.28,58.3 -71.42,28.1 -132.51,110.95l-348.81 443.86c52.49,95.44 147.79,167.9 210.03,265.96 -47.05,86.39 -210.85,241.3 -224.59,317.23 -59.68,329.74 62.42,162.66 -157.49,424.88 -73.84,88.04 -477.48,577.51 -501.31,654.14l64.51 95.84c167.59,-21.47 435.82,-262.94 559.36,-210.3 119.73,92.1 36.66,226.71 45.34,335.38 7.77,97.17 64.3,243.67 81,353.63l-940.42 561.9c-49.51,44.88 -156.03,251.05 -181.75,329.09 161.31,2.02 661.74,-24.53 743.57,-99.86 159.34,-146.67 31.94,-107.99 296.16,-115.15 123.38,-3.34 286.97,-41.2 399.91,-36.83 151.06,5.85 136.85,105.88 308.67,111.34 170.79,5.42 260.44,17.91 346.89,-70.47 102.6,-104.89 155.64,-75.66 326.29,-91.5 138.13,-12.83 278.07,-29.85 415.57,-33.65 18.94,157.73 -25.73,223.6 -41.3,360.3 -23.7,208.14 29.18,162.71 -104.25,310.93 29.2,51.88 -7.99,27.51 55.18,41.48l1640.26 -1.3c143.6,-515.27 -147.87,-605.39 -266.01,-843.5 153.7,-181.53 843.99,-653.72 1118.71,-808.91 373.81,-211.17 70.6,-100.62 736,-396.11 91.58,-40.68 195.49,-78.36 276.21,-121.22 99.97,-53.09 97.79,-89.85 232.58,-142.66 178.07,-69.76 367.01,-142.71 521.57,-232.75 338.71,-197.32 409.71,-340.78 604.86,-548.22 70.47,-74.9 97.77,-142.94 192.17,-198.32l59.61 303.57c96.17,-19.85 364.35,-186.04 431.96,-241.77 62.06,-51.16 98.34,-136.32 146.31,-186.99 132.16,-139.58 200.62,37.16 201.2,37.88l427.18 -189.67 126.78 138.7c58.69,-83.77 35.53,-143.19 20.27,-211.21 146.18,-70.04 294.92,-294.46 406.83,-432.34 193.17,-237.99 64.36,-272.31 394.52,-453.08l110.13 59.38 154.23 -96.31c85.07,25.71 24.46,27.52 120.93,72.27 24.48,-61.74 284.06,-410.56 346.94,-472.92l124.48 48.21 -26.8 182.21 387.45 -42.89 304.76 343.8c88.22,-37.95 185.75,-149.44 257.72,-214.26 120.17,-108.24 143.95,-94.21 126.91,-323.45l-606.91 -563.05c54.93,-170.55 766.58,-696.25 791.35,-859.79 -261.01,-44.09 -564.37,54.79 -781.47,0.29 -188.56,-47.34 -135.76,-455.48 -198.35,-589.2 -140.73,-8.46 -113.12,17.57 -192.03,100.66 -52.38,55.15 -92.09,82.96 -145.39,142.82 -127.78,143.49 -167.26,154.3 -403.88,153.93 -168.04,388.69 -430.3,962.11 -692.64,1297.95 -137.48,176.01 -97.72,184.39 -340.26,302.75 -156.07,76.16 -293.86,150.85 -443.65,221.26 -145.26,68.27 -100.85,32.14 -183.35,149.18 -36.87,52.33 -102.43,138.11 -151.7,180.5 -226.05,194.51 -252,173.73 -488.19,179.55 -319.44,7.88 -317.92,35.12 -462.24,-171.66z"/>
  <path class="fil1" d="M13859.52 10526.01l-120.21 407.3c-32.49,55.75 -128.65,85.61 -191.89,117.8 -562.2,286.2 -1281.78,706.27 -1823.87,968.27 -475.83,229.98 -370.52,288.47 -598.55,121.41 -111.81,-81.91 -73.28,-101.18 -142.92,-167.27 -15.63,-14.82 -158.98,-106.17 -195.32,-115.37 -74.05,-18.76 -186.98,-2.65 -244.6,42.13 -87.37,67.91 -32.86,86.41 -176.5,132.78 -180.78,58.36 -575.73,173.58 -740.53,195.15 -165.72,21.69 -196.69,-152.33 -464.33,-110.97 -80.54,12.44 -296.46,154.9 -420.19,200.83 -514.5,191.04 -392.03,-72.35 -902.44,338.05 -283.47,227.92 -295.36,51 -404.52,201.7 -163.94,119.16 -252.27,20.08 -401.53,188.99 -134.7,152.42 -150.97,242.11 -28.54,362.55 34.57,34.02 12.86,394.6 12.77,466.34 252.96,137.93 387.14,101.73 678.3,96.88l2304.93 -36.3c511.28,-8.26 1018.95,-12.19 1529.24,-23.61 609.92,-13.64 614.4,-85.84 1070.31,101.72 112.19,46.16 130.78,109.23 202.7,210.91 35.7,10.85 -5.1,-12.65 34.23,18.84 12.92,10.35 21.48,19.93 30.62,31.63 26.98,34.51 33.06,51.53 49.37,86.93 450.33,54.59 661.24,1.96 915.14,-323.98 146.26,-187.74 124.49,-129.43 346.76,-249.25 332.29,-179.13 411.95,-147.85 563.79,-347.25 497.87,-653.86 722.48,-1342.28 754.04,-1374.07 -78.35,-60.08 -111.68,-59.06 -233.61,-207.36 -92.44,-124.38 -191.35,-988.95 -196.29,-1143.37 306.1,-218.53 282.31,-232.41 602.49,-272.71 20.36,-175.27 47.35,-159.41 -53.06,-289.46 -46.66,-60.43 -113.47,-169.24 -163.6,-212.25l80.99 -108.68c-75.98,-56.77 -24.75,11.32 -148.29,-71 -92.63,-61.73 -26.91,-39.6 -157.75,-16.65 -23.89,-82.06 -65.98,-163.04 -107.06,-245.78 -112.84,-227.28 -199.31,-140.8 -746.48,-273.42 72.17,-323.98 133.32,-352.13 58.24,-524.15l-564.01 326.7c-3.7,2.72 -12.2,16.79 -14.87,12.37 -2.71,-4.48 -10.35,8.11 -14.9,12.82l63.42 87.61c147.63,183.59 275.25,334.95 204.79,562.88l-200.22 665.47c-4.57,13.77 -27.5,95.72 -46.05,154.84z"/>
  <path class="fil2" d="M5671.15 11108.85l5.04 45.68c15.6,143.25 105.51,178.63 184.69,244.15 80.47,66.59 136.27,138.43 217.42,203.33 284.04,227.16 628.81,536.08 933.01,751.7 164.26,116.43 289.33,244.51 483.87,374.2 80.16,-51.06 291.28,-335.78 378.13,-435.64 309.86,-356.31 638.57,-791.58 944.94,-1138.71 57.7,-65.37 149.45,-169.46 190.88,-236.68 -17.35,-149.06 -133.22,-299.91 -154.33,-445.44 -37.86,-485.91 -103.16,-482.92 -97.13,-538.23 -8.36,-68.3 6.64,-36.93 1.25,-126.35 -69.17,39.06 -39.58,35.07 -94.37,97.55 -48.85,67.9 -291.26,204.26 -456.82,146.13 -126.11,-44.27 -363.44,-110.09 -469.5,-175.31 29.02,-140.99 437.94,-738.78 472.26,-894.56 -107.96,-45.07 -378.38,-307.75 -542.52,-403.98 58.31,-152.24 247.06,-270.34 335.51,-391.3 -86.47,-47.38 -183.94,-146.93 -278.01,-196.6 49.25,-106.36 69.8,-108.3 143.38,-191.43 84.35,-74.86 66.92,-71.64 262.79,-121.73 111.13,-28.37 122.22,-105.15 231.89,-119.62 153.25,-20.21 176.67,41.03 286.07,76.03l501.31 -643.73c103.68,-189.69 -70.42,-358.8 117.32,-592.97 58.84,-73.39 157.69,-204.41 182.13,-293.26 -206.46,-95.75 -347.75,-321.51 -617.3,-362.07 -317.51,-47.78 -515.67,-65.71 -730.69,-253.02 8.69,-82.55 0.01,-127.38 -72.57,-146.3l-485.67 6.22c-29,-18.98 -67.42,-28.55 -117.6,-26.37l-330.25 -1.68c-98.6,-110.8 -147.09,-117.4 -337.49,-120.45l-3.23 325.98c-128.01,38.84 -347.68,16.47 -486.32,7.54 36.11,118.27 50.05,123.25 -125.65,174.71 -98.27,28.79 -224.89,8.16 -333.06,16.52 2.09,156.89 -4.18,319.17 -0.23,474.54 3.38,133.29 23.08,90.1 35.47,179.98 9.54,69.17 -1.63,163.55 3.94,239.61 101.3,67.75 267.39,65.33 353.53,139.27 85.73,90.91 -80.68,-8.28 142.59,215.34 -26.53,74.58 -201.93,278.15 -263.47,360.07 -46.9,62.44 -79.09,102.81 -136.87,173.06 -83.71,101.76 -378.84,449.81 -392.27,551.17 -15.97,120.39 128.26,2527.34 117.93,3052.65z"/>
  <path class="fil1" d="M7616.89 5307.22l482.69 8.2c133.62,93.41 -135.29,80.43 236.49,285.04 123.24,67.83 306.26,75.26 457.16,97.96 380.07,57.18 456.72,310.45 696.61,393.05 73.46,-61.92 136.64,-149.62 201.51,-226.29 39.04,-46.14 58.68,-54.19 96.99,-101.91 133.83,-166.74 343.38,-279.85 529.61,-392.12 60.58,-51.69 140.46,-81.11 191.16,-113.46 133.23,-61.24 469.84,-314.57 620.78,-394.68 67.25,52.02 82.28,52.43 156.83,112.87 63.01,51.09 88.35,80.85 153.45,109.17 116.62,-104.4 162.56,-197.11 258.73,-269.98 64.2,-48.67 274.08,-117.23 372.52,-157.3 143.26,-58.32 632.48,-248.4 767.39,-323.24 -31.67,-135.61 -91.16,-302.2 -149.59,-449.57 -54.89,-138.42 -88.87,-342.37 -259.83,-360.59 -525.86,-56.05 -1474.26,354.06 -2104.26,-114.2 -60.91,-45.27 -637.25,-506.29 -666.32,-560.55l-2215 0 -2699.08 2280.67c-52.7,43.44 -57.11,61.97 -116.02,105.52 -75.13,55.53 -153.31,126.74 -225.19,194.73 -143.68,135.92 -62.8,-13.17 -214.06,232.25 -73.43,119.16 -266.02,467.25 -229.2,631.58 631.34,44.48 488.95,-69.79 919.67,-103.11 150.9,-11.68 307.09,-33.98 449.83,-1.53 146.81,33.38 306.1,87.64 450.21,104.3l-6.21 -602.9c205.83,-38.6 230.84,23.22 458.14,-56.85l1.46 -62.9c-1.94,-7.65 -27.94,-62.92 -33.19,-75.03l512.12 10.02 11.48 -354.01c72.07,6.1 140.07,17.4 212.49,28.54 156.42,24.07 119.53,42.16 182.15,104.26l357.26 -11.94c111.18,7.5 68.87,30.45 141.22,34z"/>
  <path class="fil2" d="M10543.5 5269.28c-47.21,57.04 -25.17,33.56 -100.73,62.89 -343.73,300.88 -277.81,81.99 -787.52,631.23 -109.26,117.74 -205.91,239.05 -318.82,390.78 -173.57,233.22 -105.71,202.32 -125.57,581.66 138.72,-20.21 300.61,-75.27 433.88,-81.31 431.32,-19.53 202.32,-157.17 651.35,197.59 430.59,340.2 280.99,200.75 723.03,254.16 156.88,18.94 263.18,82.38 403.08,49.11 155.84,-37.07 664.16,-197.13 793.67,-180.76 408.59,381.09 140.44,836.87 93.18,1195.08l812.37 -274.15 680.58 918.18 626.04 -361.97 85.52 108.86c83.2,-84.9 213.57,-190.49 292.67,-262.19l870.29 -858.27c300.19,-253.49 707.18,-796.33 32.75,-929.45 -462.63,-91.31 -245.3,28.3 -757.12,-392.08 -468.96,-385.18 -976.38,-760.55 -1427.51,-1165.27l-582.67 -569.74c-38.34,-57.8 -49.32,-127.3 -83.38,-193.97 -109.45,9.67 -628.64,239.78 -774.55,298.37 -282.11,113.29 -293.18,81.67 -505.14,295.04 -53.22,53.57 -79.1,103.39 -138.73,144.01 -105.95,-59.16 -198.74,-163.39 -310.28,-219.69 -134.76,62.72 -488.63,338.78 -586.39,361.89z"/>
  <path class="fil1" d="M7386.15 12836.18c24,-41.14 47.51,-30.65 76.92,-66.66 -82.27,-124.08 -1039.08,-840.49 -1209.28,-986.75l-226.07 -195.98c-166.84,-188.11 -360.05,-223.99 -372.7,-430.94l-65.61 -1110.11 -489.2 -28.43c-151.39,-0.13 -280.29,99.25 -377.6,164.48 -108.97,73.04 -195.19,135.92 -293.75,216.62 -67.18,55 -196.26,148.41 -278.22,198.96 -16.96,10.46 -44.38,52.06 -45.67,59.88 -29.49,178.8 -83.62,374.61 -105.86,556.45 -36.33,296.9 31.38,346.38 94.08,583.46l-1119.42 490.16c22.13,123.4 58.73,423.75 118.85,505.73 25.25,34.41 127.75,102.73 169.94,140.62 64.11,57.59 82.63,98.68 153.66,155.85 182.56,146.92 227.71,217.98 325.88,294.98 152.11,119.29 196.19,130.56 261.87,379.94 215.08,816.62 54.51,392.15 44.68,742.94 -3.73,133.33 33.63,174.78 113.85,230.44 185.95,129.03 145.48,40.45 215.93,405.98 47.55,246.7 29.21,338.56 217.87,423.61l-27.57 134.46c201.69,13.22 207.29,25.98 322.28,124.82 52.45,45.09 200.27,169.74 222.21,206.76 -34.79,54.92 -76.02,95.99 -106.16,158.19 48.22,72.23 143.88,170.83 236.77,212.12 20.77,-64.44 32.14,-62 51.31,-129.6 82.25,-289.96 22.27,-296.44 -57.74,-437.13 82.12,-133.41 736.52,-1039.36 764.57,-1116.37 98.07,-269.24 -67.68,-90.23 216.39,-471.53 29.73,-39.91 77.04,-109.34 103.22,-139.72l246.89 -218.79c109.18,-104.65 113.77,-124.77 279.04,-205.82 7.17,-148.39 -18.43,-169.67 4.64,-278.09 29.31,-137.78 -30.48,-206.41 73.89,-310.5 35.81,-35.71 53.1,-66.87 88.95,-98.85 104.81,-93.5 128.29,-148.2 371.16,-161.18z"/>
  <path class="fil1" d="M3958.1 6340.25c-64.05,164.11 -46.37,628.4 -56.69,832.16 -5.31,104.95 -56.09,250.55 -103.78,334.99 -87.18,154.35 -37.66,-13.1 -134.05,88.43 -45.98,48.44 -17.87,121.63 -9.22,173.93 -98.41,81.18 -276.03,159.78 -312.82,256.9 -55.85,147.48 83.5,78.43 -72.09,459.96 -273.32,670.25 -114.76,908.44 -418.56,1332.9 -74.17,103.64 -196.12,245.91 -244.28,355.77 -74.64,170.28 -50.55,294.37 -193.83,378.33 -153.48,89.94 -236.61,124.16 -315.06,296.78 164.96,287.82 268.75,86.52 -281.95,971.13 -110.76,177.91 -73.12,210.96 -76.3,447.22 67.8,-4.96 320.98,-99.64 386.99,-137.08 72.55,-41.16 461.94,-463.24 524.37,-540.65l254.48 -287.45 130.53 58.97c-42.03,319.27 -123.95,359.56 -60.14,880.78l1072.64 -456.65c-39.09,-257.83 -159.94,-222.26 -52.68,-758.02 119.36,-596.19 12.2,-312.29 561.76,-765.73 429.57,-354.45 541.36,-274.08 1033.21,-257.89 18.68,-249.12 -61.65,-1533.57 -78.46,-1881.56 -7.77,-160.72 72.96,-207.2 149.57,-303.66 89.16,-112.27 612.34,-777.26 636.9,-847.91 -113.51,-133.05 -63.46,-34.32 -129.32,-189.49 -17.08,-40.22 -299.91,-108.16 -358.41,-126.18l2.03 -316.13c-549.68,-113.79 -359.86,-143.09 -898.6,-112.29 -204.37,11.67 -270.19,28.73 -445.57,87.92 -155.86,52.61 -345.77,16.87 -510.67,24.52z"/>
  <path class="fil3" d="M8642.72 9881.92c54.79,-62.48 64.24,-84.96 133.41,-124.02 5.39,89.42 11.55,104.36 19.91,172.66 107.14,197.61 6.82,533.95 250.54,931.13 85.54,-38.8 283.47,-354.84 363.62,-423.49l478.57 -309.47c66.06,84.95 74.77,161.45 153.3,236.5 59.56,56.91 164.95,133.68 223.47,171.11 98.56,-52.14 131.03,-159.67 254,-203.88 20.16,31.58 43.24,72.93 67.37,102.63 229.89,5.1 245.78,-15.32 394.28,-132.17 698.95,-550.03 297.25,-657.8 605.03,-946.41 162.93,-152.77 336.35,-302.41 474.6,-545.97 160.03,-281.91 189.77,-429.61 284.05,-750.7l47 -198.61c36.17,-197.13 -41.03,-690.27 -269.13,-651.84 -184.83,31.13 -662.52,201.12 -792.42,196.91 -78.45,-2.55 -279.64,-63.75 -421.51,-73.1 -215.62,-14.23 -265.28,18.65 -411.14,-84.67 -186.49,-132.11 -349.89,-283.59 -557.95,-394.18 -114.22,23.86 -52.98,36.25 -227.7,38.14 -223.67,2.41 -478.46,33.36 -595.42,194.07l-468.95 590.71c-84.52,-38.64 -147.67,-98.31 -264.66,-87.23 -110.23,10.46 -123.06,77.18 -220.39,112.31 -74.71,26.96 -270.8,14.78 -389.19,274.96 61.16,17.89 230.11,163.98 279.34,213.55 -106.37,132.48 -261.64,207.93 -332.65,376.2 99.25,62.13 178.18,135.3 273,212.68 67.02,54.69 215.1,151.06 261.33,231.14 -74.24,124.52 -439.95,748.23 -468.27,842.19 61.86,43.79 341.73,135.2 433.69,165.2 175.58,57.27 372.68,-101.6 422.87,-136.35z"/>
  <path class="fil2" d="M13871.5 10390.6c60.5,-202.08 113.72,-404.18 182.04,-629.2 40.23,-132.5 45.03,-211.01 -1.38,-345.82 -16.33,-47.43 -145.18,-213.39 -182.98,-262.42 -138.15,-179.18 -658.46,-927.8 -766.8,-1012.21 -158.79,34.55 -501.96,170.11 -699.98,233.56 -121.02,38.77 -117.02,41.88 -162.82,149.55 -347.07,815.8 -692.22,734.8 -763.21,1125.84 -50.76,279.7 -162.27,434.47 -363.06,585.99 -61.66,46.53 -101.69,86.97 -171.13,138.9 -293.88,219.77 -380.78,44.22 -455.02,12.65 -77.52,68.06 -127.2,152.04 -221.62,193.63 -150.52,-79.92 -313.99,-220.7 -373.07,-397.09 -94.45,21.31 -284.08,167.23 -375.97,226.91 -162.78,105.7 -1230.82,1427.62 -1419.55,1662.44l-549.73 674.06c135.61,13.15 303.37,-141.96 379.23,-202.62 382.1,-305.57 412.47,-72.84 895.64,-300.97 124.32,-58.7 275.52,-176.33 421.76,-168.84 424.63,21.74 -70.39,253.96 918.99,-19.75 65.68,-18.17 158.76,-39.7 222.35,-63.71 145.3,-54.86 24.19,-79.96 169.89,-141.76 439.39,-186.36 540.18,433.34 793.44,329.69 104.37,-42.72 276.25,-148.23 390.88,-209.19l1952.89 -1039.64c24.12,-27.28 157.73,-446.06 179.21,-540z"/>
  <path class="fil1" d="M14155.46 5627.59l1086.36 889.24c318.14,231.36 247.78,69.63 605.6,193.95 97.2,33.77 117.22,57.97 177.57,108.03 64.2,53.28 -12.17,14.44 88.39,63.1 20.74,-95.9 37.36,-73.67 86.69,-134.84 235.67,41.91 146.28,80.99 388.16,-10.03 120.8,-45.47 247.68,-89.52 366.77,-130.85l148.26 174.02c89.14,-22.5 425.65,-218.32 484.44,-273.72 1.64,-396.56 1.68,-467.16 -348.1,-813.78l-270.57 -347.87c-62.43,-153.93 10.01,-139.49 -173.03,-183.96 -323.08,-78.51 -423.37,-144.68 -830.17,42.06 -281.33,129.13 -307.66,-109.34 -549.53,27.49 -78.2,44.24 -150.55,76.49 -232.83,122.43 -70.83,39.55 -173.26,85.75 -228.86,124.65 -109.66,76.69 -47.05,86.97 -199,151.91 -281.42,120.26 -329.33,-23.55 -600.15,-1.83z"/>
 </g>
</svg>
