<?xml version="1.0" standalone="no"?>
<!DOCTYPE svg PUBLIC "-//W3C//DTD SVG 1.1//EN" "http://www.w3.org/Graphics/SVG/1.1/DTD/svg11.dtd" >
<svg xmlns="http://www.w3.org/2000/svg">
<metadata>Generated by IcoMoon</metadata>
<defs>
<font id="icomoon" horiz-adv-x="1024">
<font-face units-per-em="1024" ascent="960" descent="-64" />
<missing-glyph horiz-adv-x="1024" />
<glyph unicode="&#x20;" horiz-adv-x="512" d="" />
<glyph unicode="&#xe900;" glyph-name="hot-coffee-rounded-cup-on-a-plate-from-side-view" d="M130.263-19.571h139.432c1.938-12.147 12.005-21.647 24.72-21.647h317.008c12.762 0 22.782 9.453 24.72 21.647h139.432c23.585 0 42.68 19.095 42.68 42.68h-730.625c0-23.585 19.095-42.68 42.633-42.68zM986.188 419.097c-35.543 28.784-85.597 29.257-118.541 25.618 0.945 22.971 1.465 46.462 1.465 70.898h-869.112c0-234.908 35.543-404.401 260.478-467.642h348.155c89.095 25.003 148.176 67.022 187.359 122.889 85.361 1.654 222.666 35.26 227.818 153.139 2.221 51.614-19.237 80.256-37.623 95.098zM831.773 238.261c16.354 42.019 26.043 89.284 31.384 141.228 23.065 3.781 62.815 6.192 82.903-10.162 3.687-3.025 15.172-12.383 13.849-42.586-2.694-61.067-78.507-81.58-128.136-88.48zM354.063 548.604c0 0 165.428 12.147 89.615 151.627-60.878 111.971-46.982 177.67 30.911 237.035 0 0-255.137-64.99-106.347-266.103 54.591-87.63-14.18-122.559-14.18-122.559zM465.562 559.759c0 0 132.532 27.934 60.405 134.517-26.185 46.225 9.926 62.721 9.926 62.721s-85.314-2.694-49.298-76.002c28.832-58.94 20.277-92.403-21.033-121.235z" />
<glyph unicode="&#xe901;" glyph-name="hotel-with-three-floors" d="M768 857.6v102.4h-512v-102.4h-153.6v-921.6h307.2v102.4h204.8v-102.4h307.2v921.6h-153.6zM460.8 192h-102.4v102.4h102.4v-102.4zM460.8 396.8h-102.4v102.4h102.4v-102.4zM460.8 601.6h-102.4v102.4h102.4v-102.4zM665.6 192h-102.4v102.4h102.4v-102.4zM665.6 396.8h-102.4v102.4h102.4v-102.4zM665.6 601.6h-102.4v102.4h102.4v-102.4z" />
<glyph unicode="&#xe902;" glyph-name="house" d="M997.146 537.095c2.984-2.351 6.611-3.559 10.269-3.559 2.464 0 4.939 0.548 7.239 1.663 5.717 2.773 9.346 8.57 9.346 14.924v88.467c0 5.082-2.329 9.884-6.321 13.029l-270.042 212.76c-18.938 14.922-45.392 14.92-64.331 0l-101.639-80.080v31.224c0 9.161-7.427 16.587-16.587 16.587h-70.773c-9.161 0-16.587-7.427-16.587-16.587v-113.124l-64.452-50.78c-3.992-3.145-6.321-7.947-6.321-13.029v-88.467c0-6.354 3.629-12.151 9.346-14.924 5.715-2.773 12.516-2.039 17.508 1.893l8.533 6.723v-161.642l-154.721 121.9c-18.938 14.922-45.392 14.922-64.331 0l-216.96-170.935c-3.992-3.143-6.321-7.947-6.321-13.029v-88.467c0-6.354 3.629-12.151 9.346-14.924 2.3-1.117 4.775-1.663 7.239-1.663 3.656 0 7.285 1.208 10.269 3.559l8.533 6.723v-171.733h-18.799c-9.161 0-16.587-7.427-16.587-16.587s7.427-16.587 16.587-16.587h990.825c9.161 0 16.587 7.427 16.587 16.587s-7.427 16.587-16.587 16.587h-18.799v490.213l8.533-6.723zM510.894 798.936h37.598v-40.776l-37.598-29.623v70.399zM440.121 630.542l263.719 207.777c6.85 5.396 16.419 5.396 23.269 0l263.716-207.777v-46.23l-265.086 208.854c-3.010 2.373-6.637 3.559-10.267 3.559s-7.254-1.185-10.267-3.559l-265.086-208.854v46.23zM33.175 312.062l210.639 165.957c6.85 5.396 16.419 5.396 23.269 0l175.25-138.076v-46.233l-176.619 139.156c-6.022 4.746-14.511 4.746-20.531 0l-212.008-167.036v46.233zM68.562 251.476l186.886 147.241 186.886-147.244v-197.871h-72.985v195.732c0 9.161-7.427 16.587-16.587 16.587h-194.626c-9.161 0-16.587-7.427-16.587-16.587v-195.732h-72.985v197.873zM174.721 161.977h161.451v-37.598h-161.451v37.598zM336.173 195.152h-161.451v37.598h161.451v-37.598zM174.721 91.203h161.451v-37.598h-161.451v37.598zM654.652 177.403c-0.367 0.024-0.736 0.055-1.106 0.055-4.357 0-8.648-1.769-11.722-4.866-3.096-3.074-4.866-7.365-4.866-11.722s1.769-8.648 4.866-11.722c3.074-3.096 7.365-4.866 11.722-4.866 0.369 0 0.739 0.031 1.106 0.055v-90.733h-72.985v214.531h72.985v-90.733zM955.438 53.605h-267.611v231.119c0 9.161-7.427 16.587-16.587 16.587h-106.16c-9.161 0-16.587-7.427-16.587-16.587v-231.119h-72.985v516.35l239.965 189.064 239.965-189.064v-516.35zM759.706 126.59h106.16c9.161 0 16.587 7.427 16.587 16.587v141.546c0 9.161-7.427 16.587-16.587 16.587h-106.16c-9.161 0-16.587-7.427-16.587-16.587v-141.546c0-9.161 7.427-16.587 16.587-16.587zM776.294 159.765v55.292h72.985v-55.292h-72.985zM849.279 268.137v-19.905h-72.985v19.905h72.985zM759.706 374.296h106.16c9.161 0 16.587 7.427 16.587 16.587v141.546c0 9.161-7.427 16.587-16.587 16.587h-106.16c-9.161 0-16.587-7.427-16.587-16.587v-141.546c0-9.161 7.427-16.587 16.587-16.587zM776.294 407.471v55.292h72.985v-55.292h-72.985zM849.279 515.843v-19.905h-72.985v19.905h72.985zM671.24 549.018h-106.16c-9.161 0-16.587-7.427-16.587-16.587v-141.546c0-9.161 7.427-16.587 16.587-16.587h106.16c9.161 0 16.587 7.427 16.587 16.587v141.546c0 9.161-7.427 16.587-16.587 16.587zM654.652 515.843v-19.905h-72.985v19.905h72.985zM581.667 407.471v55.292h72.985v-55.292h-72.985z" />
<glyph unicode="&#xe903;" glyph-name="house-1" d="M893.687 418.642h-777.333c-31.409 0-56.859-25.45-56.859-56.84v-368.943c0-31.409 25.45-56.859 56.859-56.859h277.278v236.383c0 35.753 48.914 60.627 98.292 60.627h4.362c49.378 0 82.977-24.875 82.977-60.627v-236.383h314.423c31.39 0 56.84 25.45 56.84 56.84v368.962c0 31.39-25.45 56.84-56.84 56.84zM963.187 500.45l-422.071 443.307c-21.756 22.647-56.599 21.236-77.854-1.875l-402.951-440.077c-21.255-23.111-13.031-46.037 18.359-46.037h866.993c31.446 0 39.243 22.034 17.524 44.682z" />
<glyph unicode="&#xe904;" glyph-name="house-plan-scale" d="M970.491-52.932c-4.314 0-8.628 1.645-11.918 4.934-6.586 6.586-6.586 17.25 0 23.829l7.462 7.462h-769.655l7.462-7.455c6.586-6.586 6.586-17.25 0-23.829-6.579-6.586-17.257-6.586-23.829 0l-35.814 35.814c-3.343 3.343-4.988 7.738-4.934 12.127 0 0.067 0 0.142 0 0.209 0 5.797 2.926 10.907 7.381 13.94l34.21 34.203c6.579 6.586 17.257 6.586 23.829 0 6.586-6.586 6.586-17.25 0-23.829l-7.462-7.462h769.662l-7.462 7.462c-6.586 6.586-6.586 17.25 0 23.829 6.579 6.586 17.257 6.586 23.829 0l35.814-35.814c3.35-3.343 4.988-7.738 4.934-12.127 0-0.074 0-0.142 0-0.209 0-5.797-2.926-10.907-7.381-13.94l-34.21-34.203c-3.29-3.296-7.604-4.941-11.918-4.941zM53.084 64.19c-5.797 0-10.913 2.932-13.94 7.388l-34.203 34.203c-6.586 6.586-6.586 17.25 0 23.829 6.579 6.586 17.257 6.586 23.829 0l7.462-7.462v769.668l-7.462-7.462c-6.579-6.586-17.257-6.586-23.829 0-6.586 6.586-6.586 17.25 0 23.829l35.814 35.814c3.343 3.343 7.712 5.049 12.12 4.934 5.972-0.142 11.089-2.872 14.156-7.388l34.203-34.203c6.586-6.586 6.586-17.25 0-23.829-6.579-6.586-17.257-6.586-23.829 0l-7.462 7.462v-769.668l7.462 7.462c6.579 6.586 17.257 6.586 23.829 0 6.586-6.586 6.586-17.25 0-23.829l-35.814-35.814c-3.343-3.343-7.779-5.029-12.12-4.934-0.074 0-0.142 0-0.216 0zM1007.148 111.868h-814.38c-9.309 0-16.852 7.543-16.852 16.852v803.352c0 9.309 7.543 16.852 16.852 16.852h486.648c9.309 0 16.852-7.543 16.852-16.852v-327.085h310.874c9.309 0 16.852-7.543 16.852-16.852v-459.408c0.007-9.309-7.536-16.859-16.845-16.859zM695.546 145.573h294.75v425.711h-294.75v-425.711zM372.714 145.573h289.135v225.737h-289.135v-225.737zM209.62 145.573h129.384v225.737h-129.384v-225.737zM355.862 405.014h305.987v183.121c0 1.705 0.256 3.35 0.721 4.907v175.976h-452.95v-364.005h146.242zM452.586 802.723h209.984v112.498h-209.984v-112.498zM209.62 802.723h209.256v112.498h-209.256v-112.498z" />
<glyph unicode="&#xe905;" glyph-name="interior-design" d="M267.129 826.434c-23.822 0-46.65-6.63-66.782-18.448v-230.242c20.134-11.816 42.968-18.44 66.782-18.44 73.652 0 133.566 59.912 133.566 133.566 0 73.65-59.914 133.564-133.566 133.564zM923.824 959.998h-823.65c-55.238 0-100.174-44.934-100.174-100.174 0-294.087 0-538.275 0-834.78h1.124c5.62-49.948 47.622-89.044 99.050-89.044h578.781c18.434 0 33.392 14.958 33.392 33.392s-14.958 33.392-33.392 33.392h-55.652v256c0 18.434-14.958 33.392-33.392 33.392s-33.392-14.958-33.392-33.392v-256h-66.78v122.434c0 92.064-74.892 166.956-166.956 166.956h-256v100.174h523.129c18.434 0 33.392 14.958 33.392 33.392s-14.958 33.392-33.392 33.392h-523.131v100.174h66.782v267.129h-66.782v33.39c0 18.412 14.98 33.392 33.392 33.392h389.565v-300.521c0-18.434 14.958-33.392 33.392-33.392s33.392 14.958 33.392 33.392v300.521h66.782v-219.132c0-63.282 51.5-114.782 114.784-114.782h171.13c17.188 0 33.346 4.064 48.002 10.866v-111.040h-166.956c-18.434 0-33.392-14.958-33.392-33.392s14.958-33.392 33.392-33.392h166.956v-356.173c0-18.412-14.98-33.392-33.392-33.392h-44.522c-18.434 0-33.392-14.958-33.392-33.392s14.958-33.392 33.392-33.392h44.522c55.238 0 100.174 44.936 100.174 100.174v823.654c-0.004 55.24-44.94 100.174-100.178 100.174zM322.781 158.61c18.44 0 33.392-14.95 33.392-33.392s-14.95-33.392-33.392-33.392-33.392 14.95-33.392 33.392 14.952 33.392 33.392 33.392zM166.956 158.61c18.434 0 33.392-14.958 33.392-33.392s-14.958-33.392-33.392-33.392h-100.174v66.782h100.174zM957.216 759.652c-93.324 0-112.29 0-267.129 0v66.782h100.174v66.782h66.782v-66.782h100.174v-66.782z" />
<glyph unicode="&#xe906;" glyph-name="key" d="M100.001 56.017c-11.047 0-20-8.953-20-20v-0.016c0-11.039 8.953-19.992 20-19.992s20 8.961 20 20.008c0 11.047-8.953 20-20 20zM1003.999 960h-160c-11.047 0-20-8.953-20-20v-20.875l-26.687 0.164c-0.039 0-0.086 0-0.125 0-10.984 0-19.93-8.867-20-19.867-0.070-11.047 8.828-20.062 19.875-20.133l26.937-0.164v-207.5c-52.367-32.984-99.633-13.992-149.523 6.102-32.875 13.242-66.883 26.93-100.812 22.672-10.703-1.344-39.594-5.539-70.172-9.977-28.977-4.203-58.945-8.555-69.25-9.852-5.242-0.656-10.469 0.805-14.719 4.109-4.336 3.383-7.102 8.234-7.773 13.672-0.437 3.539-1.602 12.953 23.461 24.586 53.055 24.602 109.594 45.664 155.125 57.781 10.672 2.844 17.023 13.797 14.18 24.477-2.836 10.672-13.789 17.016-24.469 14.18-47.672-12.687-106.601-34.617-161.664-60.156-19.156-8.883-30.93-19.219-37.867-29.641l-200.515-54.68c-21.094-5.305-31.914 3.094-35.016 12.727-3.047 9.484 0.633 21.711 15.719 27.664 15.695 5.977 53.156 22.469 100.562 43.328 62.828 27.648 141.008 62.062 203.351 87.351 74.086 30.055 96.664 34.586 172.515 34.312h0.062c11.016 0 19.961 8.914 20 19.937 0.031 11.047-8.898 20.031-19.945 20.062-80.906 0.273-108.976-5.328-187.664-37.25-62.891-25.508-141.367-60.047-204.429-87.797-45.133-19.867-84.117-37.023-98.789-42.601-0.062-0.023-0.125-0.047-0.187-0.070-37.367-14.656-48.039-49.922-39.273-77.18 8.633-26.859 38.32-50.586 83.094-39.219 0.117 0.031 0.227 0.055 0.344 0.094l183.054 49.914c3.25-13.078 10.734-24.633 21.555-33.055 12.695-9.883 28.422-14.227 44.273-12.234 10.687 1.344 39.5 5.531 70.008 9.953 29.055 4.219 59.086 8.578 69.414 9.875 23.633 2.969 51.445-8.227 80.883-20.086 31.195-12.562 66.734-26.883 105.195-26.875 19.094 0 38.914 3.562 59.273 12.594v-6.344c0-11.047 8.953-20 20-20h160c11.047 0 20 8.953 20 20v319.999c0 11.047-8.953 20-20 20zM983.999 640.001h-120v258.867s0 0.016 0 0.023v21.109h120zM923.999 839.985c11.047 0 20 8.953 20 20v0.016c0 11.039-8.953 19.992-20 19.992s-20-8.961-20-20.008c0-11.047 8.953-20 20-20zM372 308.001c47.461 0 89.461 23.766 114.789 60h73.89c5.305 0 10.391 2.109 14.141 5.859l34.141 34.141h23.437l34.141-34.141c3.75-3.75 8.836-5.859 14.141-5.859h31.32c5.305 0 10.391 2.109 14.141 5.859l60 60c3.75 3.75 5.859 8.836 5.859 14.141v60c0 11.039-8.953 20-20 20h-285.203c-25.336 36.234-67.328 60-114.797 60-77.195 0-140-62.805-140-140s62.805-140 140-140zM752 488.001v-31.719l-48.281-48.281h-14.75l-34.148 34.141c-3.75 3.75-8.836 5.859-14.141 5.859h-40c-5.305 0-10.391-2.109-14.141-5.859l-34.141-34.141h-46.25c3.789 12.68 5.852 26.102 5.852 40s-2.062 27.32-5.852 40zM372 548.001c55.141 0 100-44.859 100-100s-44.859-100-100-100-100 44.859-100 100 44.859 100 100 100zM332 428.001c11.047 0 20 8.961 20 20.008s-8.953 20-20 20-20-8.953-20-20v-0.016c0-11.047 8.953-19.992 20-19.992zM717.187 879.789h0.008c11.047 0 19.992 8.961 19.992 20 0 11.047-8.961 20-20 20-11.047 0-20-8.953-20-20 0-11.039 8.953-20 20-20zM833.999 259.837c-0.117-0.031-0.227-0.055-0.344-0.094l-183.054-49.914c-3.25 13.078-10.734 24.633-21.555 33.055-12.695 9.883-28.422 14.227-44.273 12.234-10.687-1.344-39.5-5.531-70.008-9.953-29.055-4.219-59.086-8.578-69.414-9.875-23.625-2.961-51.445 8.227-80.883 20.086-46.687 18.797-103.117 41.516-164.468 14.305v6.312c0 11.047-8.953 20-20 20h-160c-11.047 0-20-8.953-20-20v-319.992c0-11.047 8.953-20 20-20h160c11.047 0 20 8.953 20 20v20.875l26.812-0.164c10.984 0 19.93 8.867 20 19.875 0.070 11.039-8.828 20.055-19.875 20.125l-26.937 0.164v207.5c52.367 32.984 99.633 13.992 149.523-6.094 32.883-13.25 66.898-26.937 100.812-22.672 10.711 1.344 39.594 5.531 70.172 9.969 28.977 4.211 58.945 8.555 69.25 9.852 5.242 0.656 10.469-0.797 14.719-4.109 4.344-3.383 7.102-8.234 7.773-13.672 0.437-3.539 1.609-12.953-23.461-24.578-53.055-24.609-109.586-45.672-155.117-57.789-10.672-2.844-17.023-13.797-14.187-24.469 2.844-10.68 13.805-17.016 24.469-14.187 47.672 12.687 106.601 34.617 161.672 60.156 19.148 8.883 30.922 19.219 37.867 29.641l200.507 54.68c21.086 5.312 31.914-3.094 35.016-12.727 3.047-9.484-0.633-21.711-15.711-27.664-15.687-5.977-53.164-22.469-100.578-43.336-62.82-27.648-141-62.055-203.343-87.344-74.086-30.055-96.711-34.601-172.515-34.312-0.016 0-0.039 0-0.062 0-11.016 0-19.961-8.914-20-19.937-0.031-11.047 8.898-20.031 19.945-20.062 1.633-0.008 3.242-0.008 4.836-0.008 77.234 0 105.734 5.977 182.828 37.258 62.883 25.508 141.367 60.047 204.421 87.797 45.141 19.867 84.125 37.023 98.789 42.601 0.062 0.023 0.125 0.047 0.195 0.070 37.367 14.656 48.039 49.922 39.273 77.18-8.633 26.852-38.32 50.578-83.094 39.219zM40.001-23.998v279.999h120v-279.999zM306.821 16.213h-0.016c-11.047 0-19.992-8.961-19.992-20 0-11.047 8.961-20 20.008-20s20 8.953 20 20c0 11.039-8.953 20-20 20z" />
<glyph unicode="&#xe907;" glyph-name="left-arrow" d="M413.363 447.784l383.076 383.093c10.548 10.523 16.351 24.593 16.351 39.595 0 15.010-5.803 29.072-16.351 39.611l-33.567 33.551c-10.531 10.556-24.609 16.367-39.611 16.367s-29.063-5.811-39.603-16.367l-456.113-456.105c-10.581-10.573-16.376-24.701-16.334-39.72-0.042-15.085 5.744-29.196 16.334-39.778l455.688-455.663c10.54-10.556 24.601-16.367 39.611-16.367 15.002 0 29.063 5.811 39.611 16.367l33.559 33.551c21.837 21.837 21.837 57.386 0 79.214l-382.651 382.651z" />
<glyph unicode="&#xe908;" glyph-name="left-arrow-min" d="M413.363 447.784l383.076 383.093c10.548 10.523 16.351 24.593 16.351 39.595 0 15.010-5.803 29.072-16.351 39.611l-33.567 33.551c-10.531 10.556-24.609 16.367-39.611 16.367s-29.063-5.811-39.603-16.367l-456.113-456.105c-10.581-10.573-16.376-24.701-16.334-39.72-0.042-15.085 5.744-29.196 16.334-39.778l455.688-455.663c10.54-10.556 24.601-16.367 39.611-16.367 15.002 0 29.063 5.811 39.611 16.367l33.559 33.551c21.837 21.837 21.837 57.386 0 79.214l-382.651 382.651z" />
<glyph unicode="&#xe909;" glyph-name="like" d="M1022.306 640.139c-14.947 164.519-131.395 283.881-277.126 283.881-97.089 0-185.985-52.247-236.006-135.983-49.568 84.82-134.821 136.003-230.354 136.003-145.712 0-262.179-119.362-277.106-283.881-1.182-7.267-6.026-45.512 8.705-107.881 21.23-89.96 70.266-171.786 141.773-236.577l356.747-323.741 362.871 323.721c71.507 64.811 120.544 146.618 141.773 236.597 14.731 62.349 9.886 100.594 8.724 107.861zM975.239 541.298c-19.378-82.161-64.299-157.016-129.78-216.332l-336.285-300.030-330.515 299.951c-65.599 59.435-110.5 134.27-129.898 216.431-13.943 59.021-8.212 92.362-8.192 92.579l0.295 1.989c12.801 144.136 112.863 248.768 237.956 248.768 92.303 0 173.558-56.717 212.118-147.996l18.138-42.991 18.138 42.991c37.949 89.881 123.498 147.977 217.987 147.977 125.073 0 225.155-104.631 238.212-250.638 0.039-0.315 5.77-33.676-8.173-92.697z" />
<glyph unicode="&#xe90a;" glyph-name="magnifying-glass" d="M1015.031-11.778l-248.848 248.848c66.753 76.743 107.168 176.873 107.168 286.311 0 240.901-195.945 436.619-436.619 436.619-240.901 0-436.619-195.945-436.619-436.619s195.945-436.619 436.619-436.619c109.439 0 209.568 40.415 286.311 107.168l248.848-248.848c5.903-5.903 13.85-9.082 21.57-9.082s15.667 2.952 21.57 9.082c11.807 11.807 11.807 31.333 0 43.14zM61.19 523.381c0 207.071 168.472 375.315 375.315 375.315 207.071 0 375.315-168.472 375.315-375.315s-168.245-375.542-375.315-375.542c-206.843 0-375.315 168.472-375.315 375.542z" />
<glyph unicode="&#xe90b;" glyph-name="man-user" d="M512 459.197c113.851 0 206.155 112.108 206.155 250.4 0 138.296-30.305 250.403-206.155 250.403s-206.16-112.108-206.16-250.403c0-138.293 92.303-250.4 206.16-250.4zM122.614 76.864c-0.035 8.432-0.070 2.376 0 0v0zM901.369 70.279c0.111 2.308 0.038 16.015 0 0v0zM900.93 86.976c-3.818 240.909-35.281 309.555-276.047 353.008 0 0-33.891-43.186-112.886-43.186s-112.892 43.186-112.892 43.186c-238.139-42.979-271.515-110.607-275.904-345.182-0.36-19.155-0.527-20.161-0.591-17.938 0.015-4.166 0.032-11.873 0.032-25.31 0 0 57.321-115.554 389.354-115.554 332.028 0 389.354 115.554 389.354 115.554 0 8.634 0.006 14.637 0.015 18.722-0.064-1.375-0.193 1.29-0.436 16.7z" />
<glyph unicode="&#xe90c;" glyph-name="map" d="M512 810c-49.625 0-90-40.375-90-90s40.375-90 90-90 90 40.375 90 90-40.375 90-90 90zM512 960c-132.336 0-240-107.664-240-240 0-45.383 12.742-89.594 36.859-127.852l203.141-324.148 203.141 324.148c24.117 38.258 36.859 82.469 36.859 127.852 0 132.336-107.664 240-240 240zM512 570c-82.703 0-150 67.297-150 150s67.297 150 150 150 150-67.297 150-150-67.297-150-150-150zM365.992-64h291.914l-23.070 182h-246.352zM395.984 178h101.828l-84.977 134.773zM687.656 178h236.352l-75 180h-184.438zM99.992 178h235.531l22.5 180h-183.031zM526.188 178h100.953l-17.055 133.047zM328.023 118h-253.031l-74.992-182h305.531zM949.008 118h-253.664l23.078-182h305.578z" />
<glyph unicode="&#xe90d;" glyph-name="map-marker" d="M627.8 206.6c82.6 137 187 329.6 187 428.6 0 167-135.8 302.8-302.8 302.8s-302.8-135.8-302.8-302.8c0-99 104.4-291.6 187-428.6-98-7.4-321-34-321-122.2 0-86.8 226.4-126.4 437-126.4 210.4 0 437 39.6 437 126.4-0.2 88.2-223.4 114.8-321.4 122.2zM251 635.2c0 144 117.2 261.2 261 261.2 144 0 261.2-117.2 261.2-261.2 0-125.8-200.4-441.4-261.2-534.2-60.8 92.8-261 408.4-261 534.2zM512-0.2c-255.8 0-395.2 56-395.2 84.8 0 22.2 92 70 304 82.2 39.8-64.2 70-109.6 74-115 5.4-7.2 21.2-15.8 34.6 0 4.2 5 34.2 50.8 74 115 212-12.2 304-59.8 304-82.2-0.2-29-139.6-84.8-395.4-84.8zM643.8 635.2c0 72.8-59 131.8-131.8 131.8s-131.8-59-131.8-131.8c0-72.8 59-131.8 131.8-131.8s131.8 59 131.8 131.8zM421.8 635.2c0 49.8 40.4 90.2 90.2 90.2s90.2-40.4 90.2-90.2c0-49.8-40.4-90.2-90.2-90.2s-90.2 40.4-90.2 90.2z" />
<glyph unicode="&#xe90e;" glyph-name="map-of-roads" d="M347.708 456.68c35.796 0 64.812-29.016 64.812-64.802s-29.016-64.812-64.812-64.812c-35.791 0-64.807 29.026-64.807 64.812s29.016 64.802 64.807 64.802zM978.844 404.633l43.946 346.462-315.225 119.626-378.118-180.608-329.446 139.134 44.486-369.62-42.637-363.973 350.038-65.659 357.027 67.996 315.086-72.711-45.156 379.352zM706.397 834.021l279.218-105.221-19.222-151.497-278.301 70.398 18.305 186.32zM669.462 814.789l-14.73-158.622-0.242 0.056-192.688-24.853-1.154-4.251c-0.242-0.917-22.598-83.512-46.158-121.076-15.249 8.967-32.396 14.972-50.718 17.199l-15.62 138.113 321.31 153.435zM640.003 460.977l-167.47-25.252c-9.019 25.515-25.566 47.428-47.055 63.104 21.923 34.995 41.711 102.744 46.693 120.628l181.293 23.4-13.462-181.88zM314.088 659.67l15.475-136.763c-50.904-7.011-92.654-42.954-107.957-90.709l-142.802 22.104-13.713 132.451c47.333 3.133 82.838 18.537 105.591 46.022 20.512 24.739 26.411 54.007 27.54 75.823l115.866-48.928zM41.227 774.897l143.971-60.796c-0.412-20.074-4.952-49.201-24.618-72.938-20.517-24.739-53.15-38.576-97.154-41.353l-22.2 175.087zM39.369 123.22l35.418 297.27 140.837-21.823c-0.106-2.257-0.332-4.493-0.332-6.799 0-30.961 10.75-59.412 28.648-82.001l-73.144-58.736-23.047-148.223-108.38 20.311zM315.292 71.474l-154.635 29.006 22.336 143.608 69.607 55.876c21.354-22.073 50.249-36.805 82.534-39.846l-19.842-188.643zM241.579 391.868c0 58.547 47.615 106.159 106.13 106.159 58.545 0 106.16-47.614 106.16-106.159 0-58.516-47.615-106.131-106.16-106.131-58.516-0.010-106.13 47.615-106.13 106.131zM351.843 64.624l-2.983 0.562 20.659 196.222c62.651 10.457 110.623 64.901 110.623 130.491 0 3.547-0.256 7.012-0.534 10.498l163.698 24.683 13.663-139.618c-71.814-3.375-125.495-25.452-159.285-66.232-39.398-47.595-41.258-106.936-39.217-136.274l-106.624-20.331zM471.58 87.432c-1.587 27.847 0.714 82.493 36.245 125.392 31.428 37.942 82.127 58.415 150.413 61.517l14.548-148.555-201.206-38.355zM686.872 634.488l277.886-70.268-16.663-131.276-274.382 33.12 13.159 168.424zM910.304 319.539l-126.432 15.032 23.154-224.279-101.296 21.772-28.724 300.052 2.952 0.464 265.242-33.671 39.241-329.574-164.141 37.862-21.671 212.38 112.687-13.077-1.012 13.040z" />
<glyph unicode="&#xe90f;" glyph-name="open-exit-door" d="M413.806 960v-74.639h-237.259v-873.627l237.259-0.195v-75.539l433.198 77.809 0.448 867.841-433.646 78.35zM485.656 482.279c14.549 0 26.344-15.348 26.344-34.279 0-18.935-11.793-34.279-26.344-34.279s-26.344 15.344-26.344 34.279c-0.002 18.931 11.795 34.279 26.344 34.279zM246.99 82.119v732.798h166.815v-732.932l-166.815 0.135z" />
<glyph unicode="&#xe910;" glyph-name="parked-car" d="M726.171 516.396c-3.295 0-6.677-0.473-10.059-1.402l-38.221-10.528-39.683 96.68c-11.246 27.388-44.481 49.674-74.086 49.674h-371.427c-29.609 0-62.84-22.286-74.082-49.674l-39.634-96.545-37.748 10.397c-3.378 0.928-6.76 1.402-10.055 1.402-18.066 0-31.176-13.801-31.176-32.81v-22.53c0-22.192 18.058-40.25 40.25-40.25h4.325l-6.407-15.605c-10.446-25.438-18.949-68.521-18.949-96.034v-192.064c0-22.192 18.058-40.25 40.25-40.25h52.567c22.192 0 40.25 18.058 40.25 40.25v47.96h452.239v-47.96c0-22.192 18.058-40.25 40.25-40.25h52.56c22.192 0 40.25 18.058 40.25 40.25v192.060c0 27.509-8.503 70.592-18.949 96.034l-6.407 15.605h4.862c22.192 0 40.25 18.058 40.25 40.25v22.53c0.004 19.009-13.11 32.81-31.172 32.81zM107.832 442.666l60.037 146.234c6.726 16.383 26.716 29.789 44.425 29.789h332.229c17.709 0 37.699-13.403 44.425-29.789l60.037-146.234c6.722-16.383-2.262-29.789-19.971-29.789h-501.207c-17.713 0.004-26.697 13.407-19.975 29.789zM241.85 257.697c0-8.856-7.248-16.097-16.097-16.097h-114.047c-8.856 0-16.101 7.244-16.101 16.097v54.731c0 8.853 7.244 16.097 16.101 16.097h114.047c8.849 0 16.097-7.244 16.097-16.097v-54.731zM660.129 257.697c0-8.856-7.248-16.097-16.097-16.097h-114.047c-8.849 0-16.097 7.244-16.097 16.097v54.731c0 8.853 7.248 16.097 16.097 16.097h114.047c8.849 0 16.097-7.244 16.097-16.097v-54.731zM973.657 819.147h-190.636c-27.76 0-50.343-22.586-50.343-50.343v-190.64c0-27.76 22.586-50.346 50.343-50.346h76.529v-427.872c0-10.378 8.409-18.787 18.787-18.787s18.787 8.409 18.787 18.787v427.868h76.532c27.76 0 50.343 22.586 50.343 50.346v190.64c0 27.76-22.582 50.346-50.343 50.346zM930.48 661.081c-10.964-9.871-27.114-14.876-47.998-14.876h-27.606c-3.314 0-6.012-2.702-6.012-6.016v-46.551c0-5.058-4.114-9.168-9.172-9.168h-20.907c-5.061 0-9.172 4.114-9.172 9.168v159.674c0 5.061 4.114 9.176 9.172 9.176h52.665c34.888 0 47.912-5.257 58.613-14.339 11.287-9.578 17.006-24.247 17.006-43.609-0.004-18.919-5.58-33.536-16.589-43.459zM900.597 723.936c-5.095 3.848-14.109 5.802-26.787 5.802h-18.934c-3.314 0-6.012-2.698-6.012-6.008v-38.259c0-3.31 2.698-6.008 6.012-6.008h11.344c4.167 0 10.9 0.308 15.007 0.688 3.987 0.364 15.24 1.995 19.37 5.114 4.956 3.75 7.47 10.235 7.47 19.272 0 9.123-2.514 15.65-7.47 19.4z" />
<glyph unicode="&#xe911;" glyph-name="phone-call" d="M875.578 825.858c-86.509 86.509-201.533 134.147-323.868 134.142-20.047 0-36.291-16.249-36.291-36.291s16.249-36.291 36.291-36.291c102.951 0.005 199.742-40.085 272.543-112.885 72.805-72.8 112.895-169.596 112.89-272.552 0-20.042 16.244-36.291 36.291-36.291 20.042 0 36.291 16.249 36.291 36.286 0.005 122.35-47.634 237.374-134.147 323.883zM726.29 501.975c0-20.042 16.249-36.291 36.296-36.286 20.042 0 36.286 16.249 36.286 36.291-0.010 136.262-110.887 247.134-247.158 247.153-0.005 0 0 0-0.005 0-20.042 0-36.286-16.244-36.291-36.286 0-20.042 16.244-36.291 36.286-36.296 96.259-0.015 174.576-78.326 174.585-174.576zM645.985 316.938c-55.318 2.865-83.499-38.275-97.014-58.037-11.318-16.544-7.079-39.127 9.465-50.445s39.127-7.079 50.445 9.465c15.968 23.347 23.202 27.020 33.015 26.556 31.409-3.692 155.114-94.343 167.501-122.689 3.107-8.347 2.99-16.529-0.344-26.483-12.987-38.546-34.486-65.634-62.184-78.331-26.314-12.063-58.574-10.97-93.273 3.15-129.57 52.811-242.769 126.511-336.449 219.059-0.039 0.039-0.077 0.073-0.111 0.111-92.354 93.588-165.919 206.643-218.643 336.014-14.125 34.728-15.218 66.994-3.155 93.302 12.697 27.698 39.785 49.196 78.297 62.169 9.987 3.348 18.155 3.455 26.425 0.377 28.448-12.431 119.094-136.131 122.752-167.187 0.523-10.181-3.179-17.41-26.507-33.349-16.549-11.304-20.802-33.886-9.494-50.435 11.304-16.549 33.882-20.797 50.435-9.494 19.771 13.5 60.902 41.604 58.047 97.111-3.145 57.979-115.929 211.52-169.819 231.335-23.967 8.932-49.177 9.087-74.958 0.435-58.008-19.534-99.903-54.364-121.155-100.72-20.613-44.972-19.96-97.149 1.911-150.919 56.426-138.449 135.371-259.589 234.64-360.068 0.242-0.247 0.489-0.489 0.74-0.726 100.406-99.085 221.406-177.885 359.671-234.243 27.688-11.26 54.955-16.897 81.031-16.897 24.552 0 48.059 4.994 69.863 14.991 46.361 21.247 81.186 63.137 100.735 121.184 8.632 25.733 8.492 50.934-0.373 74.789-19.883 54.035-173.424 166.819-231.495 169.974z" />
<glyph unicode="&#xe912;" glyph-name="train" d="M760.505 860.602h-49.702c-8.286 0-15-6.714-15-15s6.714-15 15-15h49.702c8.284 0 15 6.714 15 15s-6.714 15-15 15zM777.069 926.872h-123.264l-12.42 24.838c-2.542 5.080-7.734 8.29-13.416 8.29h-231.929c-5.682 0-10.876-3.21-13.416-8.292l-12.42-24.838h-123.268c-44.812 0-81.268-36.458-81.268-81.268v-662.659c0-44.81 36.456-81.266 81.268-81.266h66.27c1.644 0 3.222 0.274 4.704 0.764l-83.932-143.877c-4.174-7.156-1.756-16.342 5.398-20.516 2.378-1.386 4.978-2.044 7.546-2.044 5.16 0 10.182 2.666 12.97 7.444l111.628 191.359h31.538l-102.81-176.241c-4.174-7.156-1.758-16.342 5.398-20.516 2.378-1.386 4.978-2.044 7.544-2.044 5.16 0 10.182 2.666 12.97 7.444l24.65 42.258 322.385 0.002 24.644-42.25c2.79-4.78 7.81-7.444 12.97-7.444 2.566 0 5.168 0.658 7.544 2.044 7.154 4.174 9.572 13.36 5.398 20.516l-102.792 176.227h31.53l111.62-191.359c2.788-4.78 7.81-7.444 12.97-7.444 2.566 0 5.168 0.658 7.544 2.044 7.154 4.174 9.572 13.36 5.398 20.516l-83.926 143.879c1.482-0.49 3.060-0.764 4.704-0.764h66.266c44.81 0 81.266 36.456 81.266 81.266v662.663c0.004 44.81-36.452 81.268-81.262 81.268zM394.472 908.328l10.838 21.672h91.692v-18.128c0-8.286 6.716-15 15-15 8.286 0 15 6.714 15 15v18.128h91.7l10.836-21.67v-47.726h-235.065v47.724zM328.207 120.091v14.712h8.582l-8.582-14.712zM634.544 51.974l21.156-36.268-287.385-0.002 21.156 36.268 245.073 0.002zM406.97 81.969l30.82 52.834h148.435l30.82-52.832-210.075-0.002zM695.803 120.091l-8.582 14.712h8.582v-14.712zM828.335 182.941c0-28.266-23-51.264-51.266-51.264h-51.266v18.126c0 8.286-6.714 15-15 15h-50.028c-0.060 0-0.118 0.002-0.176 0h-65.542c-0.282 0.004-0.564 0.012-0.848 0h-281.003c-8.284 0-15-6.714-15-15v-18.126h-51.27c-28.27 0-51.268 22.998-51.268 51.266v18.132l216.933-0.004c5.016 0 9.698 2.506 12.48 6.68l28.68 43.020h116.478l28.682-43.020c2.782-4.174 7.464-6.68 12.48-6.68h216.933v-18.13zM828.335 231.071h-208.907l-28.682 43.020c-2.782 4.174-7.464 6.68-12.48 6.68h-132.531c-5.016 0-9.7-2.506-12.48-6.68l-28.68-43.020-208.907 0.004v135.663h632.668v-135.667zM828.335 396.738h-632.666v367.597h632.666v-367.597zM828.335 794.335h-632.666v51.27c0 28.27 22.998 51.268 51.266 51.268h117.538v-51.268c0-8.286 6.716-15 15-15h265.063c8.286 0 15 6.714 15 15v51.268h117.534c28.268 0 51.266-22.998 51.266-51.268v-51.27zM793.635 744.635h-563.264c-8.284 0-15-6.714-15-15v-298.201c0-8.286 6.716-15 15-15h563.264c8.286 0 15 6.714 15 15v298.201c0 8.286-6.714 15-15 15zM778.635 446.436h-533.264v268.199h533.264v-268.199zM313.203 860.604h-49.7c-8.284 0-15-6.714-15-15s6.716-15 15-15h49.7c8.284 0 15 6.714 15 15s-6.716 15-15 15zM760.505 860.602h-49.702c-8.286 0-15-6.714-15-15s6.714-15 15-15h49.702c8.286 0 15 6.714 15 15s-6.714 15-15 15zM346.339 347.042h-66.266c-26.542 0-48.136-21.594-48.136-48.136s21.594-48.134 48.136-48.134h66.266c26.542 0 48.136 21.594 48.136 48.134-0.002 26.542-21.596 48.136-48.136 48.136zM346.339 280.771h-66.266c-10 0-18.136 8.134-18.136 18.134s8.136 18.136 18.136 18.136h66.266c10 0 18.136-8.136 18.136-18.136s-8.136-18.134-18.136-18.134zM743.939 347.040h-66.268c-26.544 0-48.136-21.594-48.136-48.136-0.002-26.54 21.592-48.134 48.136-48.134h66.268c26.542 0 48.134 21.594 48.134 48.134 0 26.542-21.594 48.136-48.134 48.136zM743.939 280.773h-66.268c-10 0-18.136 8.134-18.136 18.134s8.136 18.136 18.136 18.136h66.268c10 0 18.134-8.136 18.134-18.136s-8.134-18.134-18.134-18.134z" />
<glyph unicode="&#xe913;" glyph-name="pin" d="M1021.312 96.88l-160 240c-4.896 7.344-14.816 9.344-22.192 4.432-7.36-4.912-9.344-14.832-4.432-22.192l143.424-215.12h-932.224l143.424 215.104c4.912 7.36 2.928 17.28-4.432 22.192-7.392 4.912-17.312 2.912-22.192-4.432l-160-240c-3.264-4.896-3.584-11.216-0.8-16.416s8.208-8.448 14.112-8.448h992c5.904 0 11.328 3.264 14.112 8.464s2.464 11.504-0.8 16.416zM1008 104h-992c-8.848 0-16-7.152-16-16v-64c0-8.848 7.152-16 16-16h992c8.848 0 16 7.152 16 16v64c0 8.848-7.152 16-16 16zM992 40h-960v32h960v-32zM248.368 278.448c-8.064 3.824-17.552 0.4-21.328-7.552l-83.888-176c-3.808-7.984-0.416-17.536 7.552-21.328 2.24-1.072 4.576-1.568 6.88-1.568 5.984 0 11.712 3.36 14.448 9.12l83.888 176c3.808 7.984 0.416 17.536-7.552 21.328zM349.472 263.376c-8.4 2.416-17.36-2.464-19.776-10.976l-22.944-80c-2.432-8.48 2.48-17.344 10.976-19.776 1.456-0.416 2.944-0.624 4.416-0.624 6.944 0 13.36 4.56 15.36 11.6l22.944 80c2.432 8.48-2.48 17.344-10.976 19.776zM880.848 94.88l-30.528 64.032c-3.776 7.952-13.264 11.376-21.328 7.552-7.968-3.792-11.36-13.344-7.552-21.328l30.528-64.032c2.736-5.744 8.464-9.104 14.448-9.104 2.304 0 4.64 0.496 6.88 1.552 7.968 3.792 11.36 13.344 7.552 21.328zM819.792 222.96l-53.344 111.92c-3.792 7.952-13.28 11.376-21.328 7.552-7.968-3.792-11.36-13.344-7.552-21.328l53.344-111.92c2.736-5.744 8.464-9.104 14.448-9.104 2.304 0 4.64 0.496 6.88 1.552 7.968 3.792 11.36 13.344 7.552 21.328zM717.248 172.4l-22.944 80c-2.432 8.528-11.36 13.392-19.776 10.976-8.512-2.432-13.408-11.296-10.976-19.776l22.944-80c2.016-7.040 8.4-11.6 15.36-11.6 1.472 0 2.96 0.208 4.416 0.624 8.512 2.432 13.408 11.296 10.976 19.776zM241.504 280h-108.176c-8.848 0-16-7.152-16-16s7.152-16 16-16h108.176c8.832 0 16 7.152 16 16s-7.152 16-16 16zM965.328 168h-129.424c-8.848 0-16-7.152-16-16s7.152-16 16-16h129.424c8.848 0 16 7.152 16 16s-7.152 16-16 16zM922.672 232h-117.28c-8.848 0-16-7.152-16-16s7.152-16 16-16h117.28c8.848 0 16 7.152 16 16s-7.152 16-16 16zM480 264h-134.944c-8.848 0-16-7.152-16-16s7.152-16 16-16h134.944c8.848 0 16 7.152 16 16s-7.152 16-16 16zM678.944 264h-133.456c-8.848 0-16-7.152-16-16s7.152-16 16-16h133.456c8.832 0 16 7.152 16 16s-7.152 16-16 16zM701.872 184h-379.744c-8.848 0-16-7.152-16-16s7.152-16 16-16h379.744c8.848 0 16 7.152 16 16s-7.152 16-16 16zM512 888c-141.152 0-256-114.848-256-256 0-210.544 235.44-419.248 245.456-428.032 3.008-2.64 6.784-3.968 10.544-3.968s7.536 1.328 10.544 3.968c10.016 8.784 245.456 217.488 245.456 428.032 0 141.152-114.848 256-256 256zM512 237.744c-45.696 43.152-224 222.512-224 394.256 0 123.52 100.48 224 224 224s224-100.48 224-224c0-171.744-178.304-351.12-224-394.256zM406.832 344h-230.832c-8.848 0-16-7.152-16-16s7.152-16 16-16h230.832c8.832 0 16 7.152 16 16s-7.152 16-16 16zM848 344h-230.848c-8.848 0-16-7.152-16-16s7.152-16 16-16h230.848c8.848 0 16 7.152 16 16s-7.152 16-16 16zM608 536h-192c-8.848 0-16-7.168-16-16s7.152-16 16-16h192c8.848 0 16 7.168 16 16s-7.152 16-16 16zM432 728c-8.848 0-16-7.168-16-16v-192c0-8.832 7.152-16 16-16s16 7.168 16 16v192c0 8.832-7.152 16-16 16zM592 670.864c-8.848 0-16-7.168-16-16v-134.864c0-8.832 7.152-16 16-16s16 7.168 16 16v134.864c0 8.832-7.152 16-16 16zM525.024 721.296c-5.152 7.2-15.152 8.848-22.32 3.728l-112-80c-7.184-5.136-8.848-15.136-3.712-22.32 3.12-4.368 8.016-6.704 13.024-6.704 3.216 0 6.464 0.976 9.296 2.976l112 80c7.184 5.136 8.848 15.136 3.712 22.32zM633.312 645.024l-112 80c-7.184 5.12-17.184 3.456-22.32-3.728-5.152-7.184-3.472-17.184 3.712-22.32l112-80c2.816-2 6.064-2.976 9.28-2.976 5.008 0 9.904 2.336 13.040 6.704 5.152 7.184 3.472 17.184-3.712 22.32zM512 584c-8.848 0-16-7.168-16-16v-48c0-8.832 7.152-16 16-16s16 7.168 16 16v48c0 8.832-7.152 16-16 16z" />
<glyph unicode="&#xe914;" glyph-name="placeholder-Fill" d="M512 960c-198.6 0-360-161.4-360-360 0-67 18.6-132.6 53.8-189.4l285.8-460.6c5.4-8.8 15.2-14.2 25.4-14.2 0 0 0.2 0 0.2 0 10.4 0 20.2 5.6 25.6 14.6l278.4 465c33.2 55.6 50.8 119.4 50.8 184.4 0 198.8-161.4 360.2-360 360.2zM769.8 446.4l-253.2-422.8-259.8 418.8c-29.2 47.2-45.2 101.8-45.2 157.6 0 165.4 135 300.4 300.4 300.4s300.2-135 300.2-300.4c0-54.2-14.8-107.4-42.4-153.6zM692 600c0-99.411-80.768-180-180.4-180s-180.4 80.589-180.4 180c0 99.411 80.768 180 180.4 180s180.4-80.589 180.4-180z" />
<glyph unicode="&#xe915;" glyph-name="placeholder" d="M512 960c-198.504 0-360-161.496-360-360 0-67.068 18.578-132.52 53.738-189.304l285.77-460.514c5.474-8.822 15.118-14.182 25.49-14.182 0.080 0 0.158 0 0.238 0 10.462 0.082 20.126 5.608 25.5 14.584l278.486 464.976c33.22 55.584 50.778 119.362 50.778 184.44 0 198.504-161.496 360-360 360zM769.732 446.364l-253.188-422.736-259.81 418.68c-29.266 47.264-45.134 101.792-45.134 157.692 0 165.42 134.98 300.4 300.4 300.4s300.2-134.98 300.2-300.4c0-54.242-14.822-107.376-42.468-153.636zM512 780c-99.252 0-180-80.748-180-180 0-98.618 79.434-180 180-180 101.806 0 180 82.466 180 180 0 99.252-80.748 180-180 180zM512 479.6c-66.514 0-120.4 54.066-120.4 120.4 0 66.168 54.232 120.4 120.4 120.4s120.2-54.232 120.2-120.4c0-65.366-52.632-120.4-120.2-120.4z" />
<glyph unicode="&#xe916;" glyph-name="placeholder-on-map-paper-in-perspective" d="M863.901 395.261l157.671-323.9c6.412-13.173-0.328-23.95-14.979-23.95h-989.189c-14.651 0-21.392 10.777-14.979 23.95l157.673 323.9c2.508 5.152 9.249 9.368 14.979 9.368h135.196c4.166 0 9.793-2.609 12.521-5.759 9.172-10.6 18.516-20.955 27.832-31.205 8.848-9.73 17.743-19.587 26.567-29.674h-160.445c-5.731 0-12.472-4.215-14.979-9.368l-104.451-214.575h829.356l-104.443 214.575c-2.506 5.153-9.248 9.368-14.98 9.368h-160.808c8.823 10.088 17.721 19.945 26.569 29.674 9.345 10.28 18.74 20.616 27.934 31.219 2.724 3.142 8.339 5.746 12.499 5.746h135.481c5.727 0 12.467-4.213 14.975-9.368zM743.807 616.612c0-176.985-147.339-210.178-216.633-380.26-5.63-13.821-25.088-13.75-30.72 0.067-62.509 153.351-188.466 195.403-212.565 332.017-23.728 134.49 69.389 266.232 205.35 279.084 138.273 13.071 254.568-95.337 254.568-230.907zM634.335 616.612c0 67.658-54.846 122.505-122.505 122.505s-122.505-54.848-122.505-122.505c0-67.659 54.846-122.505 122.505-122.505s122.505 54.846 122.505 122.505z" />
<glyph unicode="&#xe917;" glyph-name="price-tag" d="M1010.5 954.999c-6.673 6.673-17.46 6.673-24.133 0l-63.286-63.269h-397.366l-499.566-503.68c-11.384-11.367-17.648-26.506-17.648-42.583s6.264-31.216 17.648-42.583l349.304-349.304c11.725-11.725 27.103-17.58 42.515-17.58 15.463 0 30.96 5.905 42.805 17.75l486.441 499.583v414.263l63.269 63.269c6.673 6.673 6.673 17.46 0.017 24.133zM913.095 467.192l-476.61-489.479c-10.155-10.172-26.711-10.172-36.9 0l-349.304 349.304c-4.933 4.933-7.646 11.486-7.646 18.45s2.714 13.517 7.697 18.501l489.599 493.627h349.031l-82.487-82.487c-13.5 8.943-29.629 14.217-46.987 14.217-47.055 0-85.338-38.282-85.338-85.338s38.282-85.338 85.338-85.338 85.338 38.282 85.338 85.338c0 17.358-5.274 33.486-14.217 46.987l82.487 82.487v-366.269zM810.69 703.987c0-28.23-22.973-51.203-51.203-51.203s-51.203 22.973-51.203 51.203 22.973 51.203 51.203 51.203c7.885 0 15.258-1.946 21.932-5.137l-33.998-33.998c-6.673-6.673-6.673-17.46 0-24.133 3.328-3.328 7.697-5.001 12.067-5.001s8.739 1.673 12.067 5.001l33.998 33.998c3.192-6.673 5.137-14.047 5.137-21.932zM689.733 599.346c6.673 6.673 6.673 17.46 0 24.133s-17.46 6.673-24.133 0l-12.732-12.732c-30.5 24.407-69.209 36.405-108.72 33.060-27.53-2.304-52.448-15.6-70.165-37.429-18.228-22.478-26.642-51.868-23.041-80.627l12.988-103.941-152.703-152.703c-34.988 46.765-31.37 113.448 11.094 155.929 6.673 6.673 6.673 17.46 0 24.133s-17.46 6.673-24.133 0c-55.811-55.811-59.566-144.203-11.35-204.452l-19.491-19.491c-6.673-6.673-6.673-17.46 0-24.133 3.328-3.328 7.697-5.001 12.067-5.001s8.739 1.673 12.067 5.001l19.508 19.508c27.189-21.727 60.863-33.657 95.766-33.657 4.284 0 8.585 0.188 12.903 0.546 27.53 2.287 52.448 15.566 70.165 37.412 18.245 22.478 26.659 51.885 23.058 80.644l-12.988 103.941 152.703 152.703c34.971-46.765 31.37-113.465-11.111-155.946-6.673-6.673-6.673-17.46 0-24.133s17.46-6.673 24.133 0c55.811 55.828 59.549 144.221 11.35 204.469l12.767 12.767zM478.966 301.296c2.458-19.576-3.26-39.58-15.685-54.906-11.811-14.559-28.315-23.4-46.492-24.919-29.322-2.304-58.166 6.127-81.429 23.485l133.912 133.929 9.694-77.589zM484.786 529.984c-2.458 19.559 3.26 39.58 15.668 54.889 11.811 14.559 28.332 23.4 46.509 24.936 29.322 2.407 58.183-6.11 81.446-23.485l-133.929-133.929-9.694 77.589z" />
<glyph unicode="&#xe918;" glyph-name="price-tag-1" d="M815.48 423.693l-380.822-380.822c-4.438-4.438-9.299-8.665-14.371-12.469 6.34-1.691 12.891-2.536 19.654-2.536h357.998c43.323 0 78.616 35.293 78.616 78.616v320.169c-16.907 1.057-34.236 3.17-52.199 6.551-2.747-3.17-5.706-6.34-8.876-9.51zM976.516 673.065c-0.634 0.634-1.268 1.268-1.902 1.902-35.293 35.293-86.646 67.838-144.974 92.141-10.567 4.438-21.345 8.453-32.123 12.046v0.634c-0.634 46.705-38.251 84.322-84.956 84.956l-228.239 3.381c-30.221 0.423-59.384-11.412-80.729-32.757l-380.61-381.033c-30.643-30.643-30.643-80.518 0-111.161l253.177-253.177c30.643-30.643 80.518-30.643 111.161 0l381.033 381.033c10.989 10.989 19.231 23.881 24.937 38.040 38.251-10.778 75.446-16.484 108.202-16.273 81.152 0.423 107.991 35.927 116.867 57.060 8.665 21.133 15.005 65.302-41.844 123.207zM505.032 456.872c-8.876-4.861-17.963-10.144-27.051-14.793-8.665-4.438-11.623-3.381-14.793 5.917-6.551 18.597-17.118 34.447-31.7 47.55-3.804 3.381-7.819 6.551-12.68 8.453-17.329 6.763-32.545-4.438-30.432-23.035 1.057-9.299 4.015-18.175 7.608-26.839 6.129-15.005 12.68-30.009 17.118-45.648 14.371-49.875-17.329-98.904-67.415-103.764-18.175-1.691-35.504 2.113-51.354 11.201-6.974 4.015-12.257 3.593-17.541-2.325-5.283-5.706-11.201-10.989-16.695-16.484-4.861-4.861-10.144-5.072-15.005-0.211-6.129 5.706-12.046 11.835-17.963 17.752-5.072 5.283-4.649 10.778 0.423 15.85 4.015 4.015 8.031 8.242 12.046 12.257 8.876 9.087 8.876 9.721 1.691 19.654-9.299 12.68-17.541 25.994-22.613 40.999-4.015 11.623-2.959 14.582 7.608 20.499 7.819 4.438 15.639 8.876 23.669 13.103 9.299 4.861 12.046 3.804 15.216-6.129 5.283-16.907 13.948-31.911 24.726-45.859 6.974-9.087 15.639-15.85 26.205-20.077 19.865-7.819 38.040 6.129 35.927 27.262-0.634 7.185-2.747 14.159-5.495 20.922-6.763 17.329-15.427 34.025-19.865 52.411-7.397 29.587-4.015 56.637 19.865 77.77 27.051 23.881 57.271 25.36 89.182 10.567 13.103-6.129 13.103-6.34 23.247 3.804 3.381 3.381 6.763 6.763 10.355 10.144 7.819 7.397 10.355 7.397 18.175 0 2.325-2.325 4.649-4.649 6.974-6.974 16.061-16.061 16.061-16.061 0-32.334-11.412-11.412-11.412-11.412-1.902-24.515 7.397-10.144 13.103-20.922 17.541-32.545 2.325-6.34 1.057-11.201-5.072-14.582zM957.073 575.218c-7.185-17.118-83.899-32.123-200.343 16.484-34.236 14.159-65.936 31.911-91.93 50.931-0.845-1.057-1.902-2.113-2.747-3.17-25.36-25.36-66.781-25.36-92.141 0s-25.36 66.781 0 92.141 66.781 25.36 92.141 0c15.216-15.216 21.133-35.927 18.386-55.581 24.937-17.752 54.947-34.025 86.858-47.339 11.412-4.649 22.19-8.876 32.757-12.469l-1.268 91.718c1.902-0.845 3.593-1.479 5.495-2.325 49.875-20.711 94.677-49.029 123.63-77.982 0.423-0.423 0.845-0.845 1.268-1.268 27.473-27.685 30.221-45.437 27.896-51.143z" />
<glyph unicode="&#xe919;" glyph-name="roof" d="M1023.404 104.13l-20.744 124.442h-981.32l-20.74-124.442c-2.124-12.724 1.462-25.738 9.802-35.58 8.342-9.848 20.586-15.52 33.484-15.52h936.226c12.902 0 25.15 5.672 33.484 15.52 8.342 9.842 11.928 22.856 9.808 35.58zM973.402 404.113h-922.806l-14.628-87.77h952.064zM935.632 630.757c-3.528 21.162-21.838 36.67-43.292 36.67h-73.142v90.322c17.034 6.030 29.258 22.236 29.258 41.334 0 24.236-19.646 43.886-43.886 43.886h-234.058c-24.234 0-43.886-19.65-43.886-43.886 0-19.098 12.226-35.304 29.258-41.334v-90.322h-424.229c-21.452 0-39.76-15.51-43.286-36.67l-23.146-138.872h893.55l-23.142 138.872z" />
<glyph unicode="&#xe91a;" glyph-name="search" d="M991.284 27.298l-243.714 253.474c62.663 74.491 96.997 168.216 96.997 265.788 0 227.967-185.473 413.44-413.44 413.44s-413.44-185.473-413.44-413.44 185.473-413.44 413.44-413.44c85.582 0 167.137 25.813 236.865 74.815l245.565-255.398c10.264-10.66 24.069-16.538 38.863-16.538 14.003 0 27.287 5.339 37.371 15.046 21.427 20.618 22.11 54.808 1.492 76.253zM431.128 852.146c168.504 0 305.586-137.082 305.586-305.586s-137.082-305.586-305.586-305.586-305.586 137.082-305.586 305.586 137.082 305.586 305.586 305.586z" />
<glyph unicode="&#xe91b;" glyph-name="set-square" d="M769.215 775.85c41.984 42.055 41.984 110.476 0 152.531-0.008 0-0.008 0-0.008 0-20.351 20.391-47.422 31.617-76.211 31.617-28.797-0.008-55.859-11.227-76.211-31.617l-69.101-69.203 152.484-152.484zM121.476 432.617l383.959 383.959 152.476-152.484-383.951-383.951zM85.742 383.508l-83.062-183.007c-5.164-11.383-2.727-24.781 6.117-33.617 5.75-5.742 13.422-8.781 21.211-8.781 4.203 0 8.437 0.883 12.422 2.703l182.796 83.211zM1005.464 866.92c-11.211 4.641-24.117 2.070-32.695-6.523l-117.695-117.867 37.070-37.086c11.711-11.719 11.711-30.711-0.008-42.422-5.859-5.859-13.531-8.789-21.211-8.789s-15.359 2.93-21.219 8.797l-37.023 37.039-56.625-56.703 37.070-37.086c11.711-11.719 11.711-30.711-0.008-42.43-5.859-5.852-13.531-8.781-21.211-8.781s-15.359 2.93-21.211 8.789l-37.031 37.039-56.625-56.703 37.070-37.086c11.719-11.719 11.711-30.711-0.008-42.422-5.859-5.859-13.531-8.789-21.203-8.789-7.687 0-15.359 2.93-21.219 8.789l-37.031 37.047-56.617-56.711 37.062-37.078c11.719-11.719 11.711-30.719-0.008-42.43-5.852-5.859-13.531-8.781-21.203-8.781-7.68 0-15.359 2.93-21.219 8.789l-37.031 37.039-56.617-56.703 37.070-37.086c11.711-11.719 11.703-30.719-0.008-42.43-5.859-5.852-13.539-8.781-21.211-8.781-7.68 0-15.359 2.93-21.219 8.789l-37.023 37.047-56.633-56.703 37.070-37.086c11.711-11.719 11.711-30.711-0.008-42.422-5.859-5.859-13.539-8.789-21.211-8.789-7.68 0-15.359 2.93-21.219 8.797l-37.023 37.039-56.625-56.711 37.070-37.078c11.711-11.719 11.711-30.711-0.008-42.43-5.859-5.852-13.531-8.781-21.211-8.781s-15.359 2.93-21.219 8.789l-37.023 37.047-117.695-117.874c-8.57-8.586-11.133-21.484-6.484-32.687s15.586-18.508 27.711-18.508h871.879c16.562 0 30 13.43 30 30v873.199c-0.008 12.133-7.32 23.078-18.539 27.719zM863.965 126.275c0-16.562-13.437-30-30-30h-325.483c-12.125 0-23.062 7.305-27.711 18.508-4.648 11.211-2.086 24.109 6.484 32.687l325.483 325.983c8.578 8.586 21.476 11.164 32.695 6.523s18.531-15.586 18.531-27.719z" />
<glyph unicode="&#xe91c;" glyph-name="share" d="M832.958 309.183c-59.284 0-111.576-28.244-145.74-71.496l-316.881 162.053c4.148 15.472 7.13 31.459 7.13 48.284 0 18.316-3.541 35.56-8.483 52.34l315.483 161.305c33.976-45.209 87.621-74.758 148.536-74.758 103.188 0 186.66 83.472 186.66 186.568 0.002 103.002-83.472 186.522-186.658 186.522-102.955 0-186.52-83.52-186.52-186.52 0-16.872 2.984-32.905 7.178-48.424l-316.835-162.053c-34.21 43.297-86.597 71.634-145.973 71.634-103.095 0-186.52-83.565-186.52-186.613s83.427-186.568 186.52-186.568c61.008 0 114.607 29.642 148.722 74.897l315.342-161.305c-4.941-16.732-8.528-34.117-8.528-52.48 0-103.048 83.565-186.568 186.52-186.568 103.188 0 186.66 83.52 186.66 186.568 0.048 103.141-83.425 186.615-186.613 186.615z" />
<glyph unicode="&#xe91d;" glyph-name="sketch" d="M149.329 789.641c-35.346 0-64-28.654-64-64v-170.667h42.666v170.667c0 11.782 9.552 21.334 21.334 21.334h512.002v42.666h-512.002zM149.329 149.639c-11.782 0-21.334 9.552-21.334 21.334v213.335h-42.666v-213.335c0-35.346 28.654-64 64-64h213.335v42.666h-213.335zM676.415 94.621l-518.104 518.104c-8.33 8.328-21.834 8.328-30.166 0l-121.898-121.9c-8.328-8.33-8.328-21.834 0-30.166l518.104-518.102c4-4.002 9.426-6.25 15.082-6.25 5.658 0.002 11.082 2.25 15.082 6.25l121.898 121.898c8.33 8.332 8.33 21.836 0.002 30.166zM539.432-12.196l-487.938 487.938 91.734 91.734 487.938-487.94-91.734-91.732zM938.666 149.639h-320.001v-42.666h234.667v-106.666c0-11.782 9.552-21.334 21.334-21.334h64c47.128 0 85.334 38.204 85.334 85.334 0 47.128-38.206 85.332-85.334 85.332zM938.666 21.638h-42.666v85.334h42.666c23.564 0 42.666-19.102 42.666-42.666 0-23.566-19.102-42.668-42.666-42.668zM938.666 789.641h-106.666v-42.666h106.666c23.564 0 42.666-19.102 42.666-42.666v-640.003h42.666v640.003c0.002 47.128-38.204 85.332-85.332 85.332zM326.25 292.722l64.006 64.006 30.169-30.169-64.006-64.006-30.169 30.169zM240.918 378.056l64.006 64.006 30.169-30.169-64.006-64.006-30.169 30.169zM411.537 207.388l64.006 64.006 30.169-30.169-64.006-64.006-30.169 30.169zM496.909 122.011l64.006 64.006 30.169-30.169-64.006-64.006-30.169 30.169zM155.526 463.39l64.006 64.006 30.169-30.169-64.006-64.006-30.169 30.169zM920.192 912.352l-29.484 29.482c-24.946 23.814-64.206 23.814-89.152 0l-324.395-324.395c-8.328-8.33-8.328-21.834 0-30.166l88.47-88.47c3.99-4.016 9.422-6.266 15.082-6.25 5.658 0.002 11.082 2.25 15.082 6.25l324.397 324.397c0.010 0.010 0.020 0.020 0.030 0.030 24.602 24.618 24.588 64.52-0.030 89.122zM890.047 853.386l-309.335-309.333-58.304 58.304 309.335 309.313c8.056 7.698 20.744 7.698 28.8 0l29.504-29.462c0.002-0.004 0.006-0.006 0.010-0.010 7.952-7.958 7.948-20.858-0.010-28.812zM573.864 534.11l-92.074-30.742 30.742 92.224-40.534 13.504-44.246-132.715c-0.724-2.176-1.094-4.454-1.094-6.746 0.002-11.782 9.556-21.332 21.338-21.328 2.258-0.008 4.504 0.338 6.656 1.024l132.715 44.246-13.502 40.532zM742.559 852.701l30.169 30.169 88.473-88.473-30.169-30.169-88.473 88.473zM447.998 490.974h320.001v-42.666h-320.001v42.666zM810.665 490.974h42.666v-42.666h-42.666v42.666zM895.999 490.974h42.666v-42.666h-42.666v42.666z" />
<glyph unicode="&#xe91e;" glyph-name="user" d="M511.991 960c-282.76 0-511.988-229.235-511.988-511.995 0-282.753 229.228-512.005 511.988-512.005s512.005 229.252 512.005 512.005c0 282.767-229.245 511.995-512.005 511.995zM513.551 206.455v0.007h-221.828c0 159.937 140.467 159.899 171.638 201.72l3.567 19.070c-43.794 22.194-74.708 75.702-74.708 138.282 0 82.446 53.631 149.294 119.772 149.294s119.772-66.847 119.772-149.294c0-62.048-30.365-115.222-73.575-137.767l4.062-21.671c34.199-39.793 169.993-42.387 169.993-199.641h-218.691z" />
<glyph unicode="&#xe91f;" glyph-name="armchair" d="M169.323 424.071h139.139c-27.505 53.894-74.367 123.182-153.883 196.764-15.507 14.35-36.337 22.58-57.154 22.58-21.886 0-43.333-8.484-63.748-25.219-63.658-52.178-20.247-116.644-5.426-135.162 19.585-24.469 40.084-58.941 58.148-99.96 19.125 24.903 49.174 40.998 82.924 40.998zM990.321 618.196c-20.415 16.733-41.862 25.219-63.748 25.219-20.815 0-41.647-8.23-57.154-22.58-79.518-73.582-126.377-142.87-153.88-196.764h139.139c33.74 0 63.782-16.086 82.905-40.976 18.069 41.015 38.576 75.47 58.163 99.941 14.824 18.516 58.234 82.984-5.424 135.16zM916.194 181.198v138.343c0 33.92-27.595 61.518-61.516 61.518h-685.356c-33.92 0-61.516-27.598-61.516-61.518v-138.343c0-33.92 27.595-61.516 61.516-61.516h685.353c33.922 0 61.518 27.595 61.518 61.516zM777.419 76.672l10.148-80.343h51.757l10.148 80.343zM174.528 76.672l10.148-80.343h51.759l10.148 80.343zM667.517 424.071c29.477 63.941 81.348 143.805 172.689 228.334 12.884 11.922 27.834 20.907 43.927 26.651-57.888 128.949-202.848 220.615-372.132 220.615s-314.27-91.655-372.16-220.607c16.101-5.744 31.060-14.731 43.952-26.66 91.341-84.526 143.212-164.388 172.689-228.334h311.036z" />
<glyph unicode="&#xe920;" glyph-name="arroba" d="M873.967 809.967c-96.734 96.734-225.154 150.033-361.967 150.033s-265.233-53.298-361.967-150.033c-96.734-96.734-150.033-225.154-150.033-361.967s53.298-265.233 150.033-361.967c96.734-96.734 225.154-150.033 361.967-150.033 83.305 0 165.77 20.354 239.003 59.174 18.466 9.652 25.39 32.525 15.738 50.99s-32.525 25.39-50.99 15.738c-62.321-32.944-132.616-50.361-203.751-50.361-240.682 0-436.459 195.777-436.459 436.459s195.777 436.459 436.459 436.459 436.459-195.777 436.459-436.459c0-80.997-22.662-127.161-41.757-151.502-20.354-26.23-47.633-41.128-74.911-41.128-37.98 0-76.38 30.216-76.38 97.784v293.98c0 20.774-16.997 37.77-37.77 37.77s-37.77-16.997-37.77-37.77v-16.577c-47.003 47.213-111.843 76.38-183.607 76.38-142.898 0.21-259.148-116.039-259.148-258.938s116.249-259.148 259.148-259.148c25.39 0 50.361 3.567 74.282 10.911 19.934 5.875 31.266 27.069 25.39 47.003s-27.069 31.266-47.003 25.39c-16.997-5.036-34.833-7.764-52.669-7.764-101.141 0-183.607 82.256-183.607 183.607 0 101.141 82.256 183.607 183.607 183.607s183.607-82.256 183.607-183.607v-94.846c0-113.731 76.38-173.325 151.921-173.325 50.57 0 99.672 25.6 134.505 70.295 37.77 48.472 57.705 116.879 57.705 197.875 0 136.813-53.298 265.233-150.033 361.967z" />
<glyph unicode="&#xe921;" glyph-name="arrow-pointing-to-right" d="M1010.055 481.668l-304.726 304.726c-18.592 18.592-48.745 18.592-67.337 0-18.596-18.596-18.596-48.741 0-67.337l223.444-223.444h-813.823c-26.294 0-47.613-21.319-47.613-47.613 0-26.29 21.319-47.613 47.613-47.613h813.823l-223.436-223.444c-18.596-18.596-18.596-48.741 0-67.337 9.294-9.29 21.483-13.945 33.668-13.945s24.37 4.655 33.668 13.945l304.718 304.726c18.596 18.596 18.596 48.741 0 67.337z" />
<glyph unicode="&#xe922;" glyph-name="bus-stop" d="M946.341 959.958h-544.528c-44.91-2.292-79.553-40.401-77.567-85.327v-699.675c0-0.256 0.134-0.468 0.146-0.72 0.056-1.928 0.44-3.834 1.138-5.632l0.106-0.36 0.028-0.096 40.389-92.808c4.94-11.855 16.441-19.648 29.282-19.84h14.241v-68.26c0.058-5.828 1.122-11.601 3.146-17.065h-207.933v307.174c-0.030 28.262-22.934 51.166-51.196 51.196v291.294c71.514 9.009 123.702 72.062 119.188 144s-64.175 127.973-136.255 127.973-131.739-56.035-136.253-127.973c-4.514-71.938 47.674-134.991 119.188-144v-291.294c-28.262-0.030-51.166-22.934-51.196-51.196v-307.174h-51.196c-9.425 0-17.065-7.639-17.065-17.065s7.639-17.065 17.065-17.065h989.783c9.425 0 17.065 7.641 17.065 17.065s-7.639 17.065-17.065 17.065h-71.406c2.024 5.466 3.088 11.239 3.144 17.065v68.26h14.233c12.835 0.196 24.332 7.979 29.282 19.822l40.425 92.916c0.052 0.122 0.062 0.256 0.112 0.38 0.7 1.804 1.086 3.714 1.138 5.648 0.010 0.242 0.14 0.446 0.14 0.69v699.675c1.984 44.928-32.663 83.037-77.577 85.327zM34.135 755.175c0 56.549 45.842 102.391 102.391 102.391s102.391-45.842 102.391-102.391-45.842-102.391-102.391-102.391c-56.525 0.062-102.329 45.868-102.391 102.391zM170.656-29.827h-68.26v307.174c0.012 9.419 7.645 17.053 17.065 17.065h34.131c9.419-0.012 17.053-7.645 17.065-17.065v-307.174zM511.961-12.76c-0.012-9.419-7.645-17.053-17.065-17.065h-34.131c-9.419 0.012-17.053 7.645-17.065 17.065v68.26h68.26v-68.26zM542.946-29.827c2.024 5.466 3.088 11.239 3.144 17.065v68.26h255.979v-68.26c0.058-5.828 1.122-11.601 3.146-17.065h-262.268zM904.462-12.76c-0.010-9.421-7.643-17.057-17.065-17.065h-34.131c-9.421 0.010-17.057 7.643-17.065 17.065v68.26h68.26v-68.26zM951.108 89.631h-554.053l-29.706 68.26h613.474l-29.716-68.26zM597.288 192.022v34.131c0.012 9.419 7.645 17.053 17.065 17.065h119.456c9.419-0.012 17.053-7.645 17.065-17.065v-34.131h-153.585zM989.787 874.631v-682.609h-204.783v34.131c-0.030 28.262-22.934 51.166-51.196 51.196h-119.456c-28.262-0.030-51.166-22.934-51.196-51.196v-34.131h-204.783v682.609c-1.93 26.064 17.409 48.856 43.438 51.196h544.528c26.032-2.34 45.374-25.13 43.446-51.196zM904.462 891.696h-460.761c-28.262-0.030-51.166-22.934-51.196-51.196v-17.065c0.030-28.262 22.934-51.166 51.196-51.196h460.761c28.262 0.030 51.166 22.934 51.196 51.196v17.065c-0.032 28.262-22.934 51.166-51.196 51.196zM921.527 823.435c-0.010-9.421-7.645-17.057-17.065-17.065h-460.761c-9.419 0.012-17.053 7.645-17.065 17.065v17.065c0.012 9.419 7.645 17.053 17.065 17.065h460.761c9.421-0.010 17.057-7.643 17.065-17.065v-17.065zM460.765 362.674c-37.699 0-68.26-30.561-68.26-68.26 0.044-37.681 30.579-68.218 68.26-68.26 37.699 0 68.26 30.561 68.26 68.26s-30.561 68.26-68.26 68.26zM460.765 260.283c-18.85 0-34.131 15.281-34.131 34.131 0.018 18.842 15.289 34.111 34.131 34.131 18.85 0 34.131-15.281 34.131-34.131s-15.281-34.131-34.131-34.131zM887.395 362.674c-37.699 0-68.26-30.561-68.26-68.26s30.561-68.26 68.26-68.26c37.699 0 68.26 30.561 68.26 68.26-0.038 37.683-30.577 68.22-68.26 68.26zM887.395 260.283c-18.85 0-34.131 15.281-34.131 34.131s15.281 34.131 34.131 34.131 34.131-15.281 34.131-34.131c-0.022-18.84-15.289-34.109-34.131-34.131zM904.462 738.109h-460.761c-28.262-0.030-51.166-22.934-51.196-51.196v-238.914c0.030-28.262 22.934-51.166 51.196-51.196h460.761c28.262 0.030 51.166 22.934 51.196 51.196v238.914c-0.032 28.262-22.934 51.166-51.196 51.196zM921.527 448.001c-0.010-9.421-7.645-17.057-17.065-17.065h-460.761c-9.419 0.012-17.053 7.645-17.065 17.065v238.912c0.012 9.419 7.645 17.053 17.065 17.065h460.761c9.421-0.010 17.057-7.643 17.065-17.065v-238.912z" />
<glyph unicode="&#xe923;" glyph-name="college-graduation" d="M577.723 250.112c-18.225-11.178-41.566-17.335-65.723-17.335s-47.498 6.155-65.723 17.335l-297.552 182.491c0 0-26.857 16.462-26.857-20.831 0-42.349 0-169.396 0-169.396 0-1.694 0-10.197 0-12.833 0-95.996 174.665-199.485 390.125-199.485s390.125 103.486 390.125 199.485c0 2.636 0 11.139 0 12.833 0 0 0 134.752 0 179.67 0 29.934-19.093 15.307-19.093 15.307l-305.301-187.242zM1006.852 577.763c22.863 14.021 22.863 36.967 0 50.991l-453.284 226.67c-22.863 14.021-60.277 14.021-83.14 0l-453.281-226.67c-22.863-14.021-22.863-36.967 0-50.991l453.281-278.002c22.863-14.021 60.277-14.021 83.14 0zM988.106 165.699c0 76.757 0 307.031 0 307.031s0.213 14.542-8.416 9.74c-6.922-3.852-23.89-13.31-29.868-18.51-6.902-5.998-5.346-19.463-5.346-19.463s0-209.099 0-278.798c0-3.958-3.401-5.847-5.023-6.802-15.669-9.212-26.205-26.215-26.205-45.709 0-29.295 23.746-53.044 53.044-53.044 29.295 0 53.042 23.749 53.042 53.044 0 19.568-10.613 36.626-26.382 45.814-1.568 0.914-4.846 2.741-4.846 6.696z" />
<glyph unicode="&#xe924;" glyph-name="compass" d="M512 960c-282.767 0-512-229.233-512-512s229.233-512 512-512 512 229.233 512 512c-0.317 282.633-229.367 511.683-512 512zM512-29.867c-263.917 0-477.867 213.95-477.867 477.867s213.95 477.867 477.867 477.867 477.867-213.95 477.867-477.867c-0.3-263.792-214.075-477.567-477.867-477.867zM512 874.667c-235.642 0-426.667-191.025-426.667-426.667s191.025-426.667 426.667-426.667 426.667 191.025 426.667 426.667c-0.267 235.533-191.133 426.4-426.667 426.667zM512 55.467c-216.792 0-392.533 175.742-392.533 392.533s175.742 392.533 392.533 392.533 392.533-175.742 392.533-392.533c-0.242-216.692-175.842-392.292-392.533-392.533zM763.358 699.358c-5.433 5.417-13.808 6.542-20.483 2.75l-304.692-173.892c-0.183-0.125-0.267-0.325-0.458-0.433-1.95-1.675-3.775-3.5-5.458-5.458-0.108-0.183-0.308-0.275-0.425-0.458l-173.95-304.692c-3.808-6.683-2.675-15.083 2.758-20.525 5.442-5.433 13.842-6.567 20.525-2.758l304.642 173.892c0.183 0.125 0.267 0.325 0.458 0.433 1.95 1.675 3.775 3.5 5.458 5.458 0.108 0.183 0.308 0.275 0.425 0.458l173.95 304.642c3.842 6.692 2.717 15.133-2.75 20.583zM318.533 254.533l131.858 230.925 99.158-99.067zM573.608 410.45l-98.983 98.992 230.925 131.858zM238.933 465.067h-68.267c-9.425 0-17.067-7.642-17.067-17.067s7.642-17.067 17.067-17.067h68.267c9.425 0 17.067 7.642 17.067 17.067s-7.642 17.067-17.067 17.067zM853.333 465.067h-68.267c-9.425 0-17.067-7.642-17.067-17.067s7.642-17.067 17.067-17.067h68.267c9.425 0 17.067 7.642 17.067 17.067s-7.642 17.067-17.067 17.067zM512 704c9.425 0 17.067 7.642 17.067 17.067v68.267c0 9.425-7.642 17.067-17.067 17.067s-17.067-7.642-17.067-17.067v-68.267c0-9.425 7.642-17.067 17.067-17.067zM512 192c-9.425 0-17.067-7.642-17.067-17.067v-68.267c0-9.425 7.642-17.067 17.067-17.067s17.067 7.642 17.067 17.067v68.267c0 9.425-7.642 17.067-17.067 17.067z" />
<glyph unicode="&#xe925;" glyph-name="doorway" d="M467.164 429.096h-60.4c-9.758 0-17.666-7.91-17.666-17.666s7.908-17.666 17.666-17.666h60.4c9.76 0 17.666 7.91 17.666 17.666s-7.908 17.666-17.666 17.666zM827.682 908.71h-260.604v33.624c0 5.488-2.552 10.666-6.904 14.008-4.356 3.344-10.014 4.478-15.316 3.060l-353.092-94.158c-7.734-2.062-13.114-9.066-13.114-17.070v-57.062c0-9.756 7.908-17.666 17.666-17.666s17.666 7.91 17.666 17.666v43.488l317.76 84.738v-944.122l-317.76 63.552v692.8c0 9.756-7.908 17.666-17.666 17.666s-17.666-7.91-17.666-17.666v-707.284c0-8.422 5.942-15.672 14.202-17.322l353.092-70.62c1.15-0.23 2.308-0.344 3.464-0.344 4.050 0 8.014 1.392 11.2 4.004 4.092 3.356 6.466 8.37 6.466 13.662v33.62h162.81c9.76 0 17.666 7.91 17.666 17.666s-7.908 17.666-17.666 17.666h-162.81v50.406h174.862c9.76 0 17.666 7.91 17.666 17.666v714.616c0 9.756-7.908 17.666-17.666 17.666h-174.862v50.408h242.936v-850.754h-25.204c-9.76 0-17.666-7.91-17.666-17.666s7.908-17.666 17.666-17.666h42.87c9.76 0 17.666 7.91 17.666 17.666v886.086c0.004 9.756-7.906 17.666-17.662 17.666zM724.274 787.638v-679.278h-157.194v679.278h157.194z" />
<glyph unicode="&#xe926;" glyph-name="down-arrow" d="M0 703.166l512.001-510.334 511.999 510.334z" />
<glyph unicode="&#xe927;" glyph-name="draw" d="M801.75 381.746c-9.626 56.927-38.356 86.728-60.763 101.707-21.86 14.608-44.563 20.233-62.277 22.132-22.844 30.554-55.716 47.236-93.609 47.236-8.315 0-16.782-0.795-25.29-2.374-22.49 25.699-53.394 39.709-88.211 39.709-0.64 0-1.283-0.007-1.93-0.014l-0.151 126.76c-0.038 29.119-11.236 55.080-31.534 73.104-13.961 12.399-31.448 20.408-50.35 23.291 4.139 25.435 12.688 43.328 25.576 53.36 16.063 12.506 41.787 14.405 76.455 5.628 70.025-17.711 141.288-23.105 188.087 56.628 5.769 9.829 2.477 22.479-7.355 28.252-9.829 5.763-22.479 2.474-28.252-7.355-27.733-47.257-64.985-57.055-142.362-37.5-47.652 12.055-85.307 7.655-111.935-13.077-23.202-18.065-37.108-47.102-42.182-88.101-16.789-4.393-32.14-12.946-44.098-24.918-18.024-18.048-27.537-42.096-27.502-69.547l0.213-174.808 0.151-124.235c-26.109-13.958-44.16-36.055-52.527-64.507-12.888-43.827-2.615-100.272 31.41-172.561 22.393-47.573 49.273-89.191 62.143-108.168l5.704-75.929c2.546-33.901 31.176-60.454 65.167-60.454l270.573 0.334c32.645 0.041 60.468 24.478 64.716 56.845l10.51 80.033c63.88 100.152 87.309 203.944 69.622 308.527zM695.398 92.422c-1.944-3.007-3.23-6.409-3.695-9.963l-11.016-83.91c-1.572-11.969-11.766-21.227-23.838-21.241l-270.491-0.636c-0.010 0-0.021 0-0.031 0-12.588 0-23.054 10.011-24 22.569l-6.055 80.687c-0.32 4.252-1.748 8.394-4.166 11.907-24.76 35.976-163.004 245.93-51.051 292.733 8.911 3.722 14.683 12.475 14.673 22.132-0.072 57.155-0.296 246.852-0.375 310.007-0.045 37.668 28.204 56.518 56.453 56.518 28.194 0 56.391-18.781 56.436-56.374l0.175-145.482c0.017-13.472 10.985-24.034 23.99-24.034 1.245 0 2.511 0.096 3.788 0.299 4.782 0.753 9.974 1.239 15.413 1.239 20.322 0 44.030-6.805 62.195-31.971 4.514-6.248 11.735-9.671 19.228-9.671 2.102 0 4.232 0.272 6.327 0.822 7.122 1.885 16.035 3.485 25.748 3.485 21.224 0 46.262-7.655 64.727-36.746 3.702-5.835 9.991-9.464 16.896-9.716 24.392-0.881 81.020-11.566 94.321-90.216 12.323-72.894 6.647-170.693-65.649-282.436z" />
<glyph unicode="&#xe928;" glyph-name="favorite-heart-button" d="M512-23.040l-71.68 71.68c-266.24 235.52-440.32 394.24-440.32 588.8 0 158.72 122.88 281.6 281.6 281.6 87.040 0 174.080-40.96 230.4-107.52 56.32 66.56 143.36 107.52 230.4 107.52 158.72 0 281.6-122.88 281.6-281.6 0-194.56-174.080-353.28-440.32-588.8l-71.68-71.68z" />
<glyph unicode="&#xe929;" horiz-adv-x="1536" d="M0 960h1536v-512h-1536v512z" />
<glyph unicode="&#xe92a;" horiz-adv-x="1536" d="M0 448h1536v-512h-1536v512z" />
<glyph unicode="&#xe92b;" horiz-adv-x="1536" d="M0 618.667h1536v-341.333h-1536v341.333z" />
<glyph unicode="&#xe92c;" glyph-name="front-bus" d="M80.842 205.474c0-48.505 21.558-91.621 53.895-118.568v-97.011c0-32.337 21.558-53.895 53.895-53.895h53.895c32.337 0 53.895 21.558 53.895 53.895v53.895h431.158v-53.895c0-32.337 21.558-53.895 53.895-53.895h53.895c32.337 0 53.895 21.558 53.895 53.895v97.011c32.337 26.947 53.895 70.061 53.895 118.568v538.947c0 188.632-194.021 215.579-431.158 215.579s-431.158-26.947-431.158-215.579v-538.947zM269.474 151.579c-43.116 0-80.842 37.726-80.842 80.842s37.726 80.842 80.842 80.842 80.842-37.726 80.842-80.842-37.726-80.842-80.842-80.842zM754.526 151.579c-43.116 0-80.842 37.726-80.842 80.842s37.726 80.842 80.842 80.842 80.842-37.726 80.842-80.842-37.726-80.842-80.842-80.842zM835.368 474.947h-646.737v269.474h646.737v-269.474z" />
<glyph unicode="&#xe92d;" glyph-name="gallery" d="M982.228 851.991h-940.457c-22.676 0-41.772-19.096-41.772-41.772v-724.438c0-22.676 19.096-41.772 41.772-41.772h940.457c22.676 0 41.772 19.096 41.772 41.772v724.438c0 23.869-17.902 41.772-41.772 41.772zM940.457 351.925l-170.667 136.056c-15.515 11.935-38.191 11.935-53.706-1.193l-192.149-167.086-254.21 286.434c-8.354 8.354-20.289 14.322-32.224 14.322s-22.676-4.774-31.030-13.128l-122.928-133.669v294.788h856.914v-416.522zM512 743.385c-75.189 0-137.249-62.061-137.249-137.249s60.867-137.249 137.249-137.249 137.249 62.061 137.249 137.249c0 76.382-62.061 137.249-137.249 137.249z" />
<glyph unicode="&#xe92e;" glyph-name="growth" d="M275.891 285.070h-173.891c-16.57 0-30-13.43-30-30v-289.070c0-16.57 13.43-30 30-30h173.898c16.562 0 30 13.43 30 30v289.070c-0.008 16.57-13.437 30-30.008 30zM598.594 446.649h-173.898c-16.57 0-30-13.43-30-30v-450.648c0-16.57 13.43-30 30-30h173.898c16.562 0 30 13.43 30 30v450.648c0 16.57-13.437 30-30 30zM921.281 690.68h-173.891c-16.57 0-30-13.43-30-30v-694.68c0-16.57 13.43-30 30-30h173.891c16.57 0 30 13.43 30 30v694.68c0 16.57-13.43 30-30 30zM103.984 582.828c4.703 0 9.477 1.109 13.937 3.453l313.328 164.766 124.719-64.656c8.945-4.641 19.625-4.477 28.422 0.437l277.852 155.047-10.687-28.203c-5.875-15.492 1.922-32.812 17.414-38.687 3.5-1.32 7.094-1.953 10.625-1.953 12.109 0 23.516 7.383 28.062 19.375l39.719 104.789c0.969 2.539 1.523 5.172 1.773 7.828 0.18 1.695 0.211 3.43 0.078 5.125-0.297 4.281-1.477 8.562-3.703 12.555-5.117 9.172-14.328 14.594-24.078 15.289l-107.484 21.422c-16.242 3.242-32.047-7.305-35.281-23.555-3.242-16.25 7.305-32.047 23.555-35.289l31-6.172-263.984-147.312-124.289 64.437c-8.711 4.516-19.086 4.484-27.766-0.086l-327.203-172.047c-14.664-7.719-20.297-25.852-12.586-40.516 5.367-10.211 15.789-16.047 26.578-16.047z" />
<glyph unicode="&#xe92f;" glyph-name="school" d="M1008.971 6.137h-33.065v418.818h33.065c5.485 0 10.535 2.988 13.176 7.797 2.639 4.809 2.449 10.675-0.495 15.302l-112.219 176.344c-2.759 4.336-7.541 6.962-12.681 6.962h-298.371l-71.351 71.349v58.903h145.284c5.543 0 10.637 3.050 13.252 7.938 2.615 4.886 2.329 10.817-0.747 15.428l-26.504 39.758 26.506 39.758c3.076 4.611 3.361 10.543 0.747 15.428-2.617 4.888-7.711 7.938-13.254 7.938h-145.284v17.033c0 8.3-6.729 15.029-15.029 15.029s-15.029-6.729-15.029-15.029v-202.183l-71.351-71.351h-298.371c-5.138 0-9.921-2.625-12.681-6.962l-112.219-176.344c-2.944-4.627-3.134-10.492-0.495-15.302 2.641-4.807 7.691-7.795 13.176-7.795h33.065v-418.818h-33.065c-8.3 0-15.029-6.729-15.029-15.029s6.729-15.029 15.029-15.029h993.941c8.3 0 15.029 6.729 15.029 15.029s-6.729 15.029-15.029 15.029zM888.501 601.299l93.092-146.286h-206.868l-146.286 146.286h260.062zM644.23 857.8l-16.486-24.728c-3.367-5.048-3.367-11.625 0-16.673l16.486-24.728h-117.201v66.129h117.201zM135.499 601.299h260.060l-146.286-146.286h-206.864l93.090 146.286zM78.153 424.955h177.342c0.497 0 0.994 0.026 1.491 0.076 0.212 0.020 0.421 0.060 0.631 0.090 0.275 0.040 0.549 0.072 0.824 0.126 0.244 0.048 0.481 0.116 0.721 0.176 0.234 0.058 0.471 0.112 0.703 0.18 0.236 0.072 0.467 0.162 0.699 0.244 0.23 0.082 0.461 0.158 0.689 0.252 0.218 0.090 0.427 0.196 0.639 0.297 0.23 0.11 0.465 0.212 0.691 0.335 0.206 0.11 0.401 0.236 0.601 0.355 0.22 0.13 0.445 0.257 0.659 0.401 0.224 0.15 0.435 0.317 0.649 0.479 0.176 0.132 0.359 0.254 0.529 0.397 0.385 0.315 0.753 0.647 1.104 1l245.872 245.868 245.872-245.87c0.351-0.351 0.721-0.683 1.104-1 0.17-0.14 0.351-0.263 0.527-0.395 0.216-0.162 0.429-0.331 0.653-0.481 0.212-0.142 0.435-0.267 0.653-0.397 0.202-0.122 0.399-0.248 0.607-0.359 0.224-0.12 0.455-0.222 0.685-0.331 0.214-0.102 0.427-0.208 0.647-0.301 0.224-0.092 0.453-0.166 0.679-0.248 0.234-0.084 0.467-0.174 0.707-0.248 0.228-0.070 0.461-0.12 0.691-0.178 0.244-0.062 0.485-0.13 0.733-0.178 0.265-0.052 0.531-0.084 0.798-0.122 0.218-0.032 0.435-0.072 0.657-0.094 0.493-0.048 0.988-0.074 1.483-0.074h177.348v-418.818h-322.63v209.409c0 25.967-21.125 47.092-47.092 47.092h-128.25c-25.967 0-47.092-21.125-47.092-47.092v-209.409h-322.63v418.818zM593.159 198.513h-162.317v17.033c0 9.392 7.641 17.033 17.033 17.033h128.25c9.392 0 17.033-7.641 17.033-17.033v-17.033zM430.841 168.454h66.129v-162.317h-66.129v162.317zM527.029 168.454h66.129v-162.317h-66.129v162.317zM512 312.736c61.326 0 111.217 49.891 111.217 111.217s-49.891 111.217-111.217 111.217-111.217-49.891-111.217-111.217 49.891-111.217 111.217-111.217zM512 505.112c44.751 0 81.159-36.407 81.159-81.159s-36.407-81.159-81.159-81.159-81.159 36.407-81.159 81.159 36.407 81.159 81.159 81.159zM512 408.924c8.3 0 15.029 6.729 15.029 15.029v48.094c0 8.3-6.729 15.029-15.029 15.029s-15.029-6.729-15.029-15.029v-33.065h-33.065c-8.3 0-15.029-6.729-15.029-15.029s6.729-15.029 15.029-15.029h48.094zM351.687 182.481h-80.157c-8.3 0-15.029-6.729-15.029-15.029v-96.188c0-8.3 6.729-15.029 15.029-15.029h80.157c8.3 0 15.029 6.729 15.029 15.029v96.188c0 8.3-6.729 15.029-15.029 15.029zM336.658 152.423v-18.035h-50.098v18.035h50.098zM286.56 86.294v18.035h50.098v-18.035h-50.098zM207.405 182.481h-80.157c-8.3 0-15.029-6.729-15.029-15.029v-96.188c0-8.3 6.729-15.029 15.029-15.029h80.157c8.3 0 15.029 6.729 15.029 15.029v96.188c0 8.3-6.729 15.029-15.029 15.029zM192.376 152.423v-18.035h-50.098v18.035h50.098zM142.278 86.294v18.035h50.098v-18.035h-50.098zM346.677 374.857h-70.137c-11.050 0-20.039-8.99-20.039-20.039v-107.209c0-8.3 6.729-15.029 15.029-15.029h80.157c8.3 0 15.029 6.729 15.029 15.029v107.209c0 11.050-8.99 20.039-20.039 20.039zM336.658 344.798v-34.067h-50.098v34.067h50.098zM286.56 262.638v18.035h50.098v-18.035h-50.098zM202.395 374.857h-70.137c-11.050 0-20.039-8.99-20.039-20.039v-107.209c0-8.3 6.729-15.029 15.029-15.029h80.157c8.3 0 15.029 6.729 15.029 15.029v107.209c0 11.050-8.99 20.039-20.039 20.039zM192.376 344.798v-34.067h-50.098v34.067h50.098zM142.278 262.638v18.035h50.098v-18.035h-50.098zM816.595 56.235h80.157c8.3 0 15.029 6.729 15.029 15.029v96.188c0 8.3-6.729 15.029-15.029 15.029h-80.157c-8.3 0-15.029-6.729-15.029-15.029v-96.188c0-8.3 6.729-15.029 15.029-15.029zM831.624 86.294v18.035h50.098v-18.035h-50.098zM881.722 152.423v-18.035h-50.098v18.035h50.098zM672.313 56.235h80.157c8.3 0 15.029 6.729 15.029 15.029v96.188c0 8.3-6.729 15.029-15.029 15.029h-80.157c-8.3 0-15.029-6.729-15.029-15.029v-96.188c0-8.3 6.729-15.029 15.029-15.029zM687.342 86.294v18.035h50.098v-18.035h-50.098zM737.44 152.423v-18.035h-50.098v18.035h50.098zM816.595 232.579h80.157c8.3 0 15.029 6.729 15.029 15.029v107.209c0 11.050-8.99 20.039-20.039 20.039h-70.137c-11.050 0-20.039-8.99-20.039-20.039v-107.209c0-8.3 6.729-15.029 15.029-15.029zM831.624 262.638v18.035h50.098v-18.035h-50.098zM881.722 344.798v-34.067h-50.098v34.067h50.098zM672.313 232.579h80.157c8.3 0 15.029 6.729 15.029 15.029v107.209c0 11.050-8.99 20.039-20.039 20.039h-70.137c-11.050 0-20.039-8.99-20.039-20.039v-107.209c0-8.3 6.729-15.029 15.029-15.029zM687.342 262.638v18.035h50.098v-18.035h-50.098zM737.44 344.798v-34.067h-50.098v34.067h50.098z" />
</font>
</defs>
</svg>
